<?xml version="1.0" standalone="no"?>
<!DOCTYPE svg PUBLIC "-//W3C//DTD SVG 20010904//EN"
 "http://www.w3.org/TR/2001/REC-SVG-20010904/DTD/svg10.dtd">
<svg version="1.0" xmlns="http://www.w3.org/2000/svg"
 width="1080.000000pt" height="1080.000000pt" viewBox="0 0 1080.000000 1080.000000"
 preserveAspectRatio="xMidYMid meet">
<metadata>
Created by potrace 1.14, written by Peter Selinger 2001-2017
</metadata>
<g transform="translate(0.000000,1080.000000) scale(0.100000,-0.100000)"
fill="#000000" stroke="none">
<path d="M5149 10796 c-2 -2 -60 -6 -129 -10 -69 -4 -137 -8 -150 -10 -14 -3
-52 -7 -85 -10 -33 -3 -69 -8 -80 -10 -11 -2 -47 -7 -80 -11 -33 -3 -78 -10
-100 -15 -22 -5 -56 -11 -75 -14 -233 -36 -637 -144 -883 -236 -431 -160 -745
-316 -1100 -547 -117 -76 -263 -178 -277 -193 -3 -3 -30 -24 -60 -45 -258
-187 -631 -543 -876 -837 -114 -137 -128 -154 -249 -324 -382 -532 -664 -1133
-830 -1769 -44 -168 -85 -363 -101 -478 -2 -15 -6 -39 -9 -55 -3 -15 -8 -45
-11 -67 -2 -22 -7 -53 -9 -70 -3 -16 -7 -55 -10 -85 -4 -30 -8 -68 -10 -85
-27 -204 -27 -824 0 -1042 2 -16 6 -57 9 -93 4 -36 8 -75 10 -85 4 -22 14 -89
21 -145 3 -19 7 -46 10 -60 3 -14 8 -41 11 -60 97 -577 341 -1238 649 -1760
57 -96 240 -381 267 -415 5 -5 38 -50 75 -100 68 -92 171 -219 272 -335 56
-66 412 -424 467 -470 166 -141 227 -190 339 -274 127 -96 381 -267 500 -339
341 -203 888 -440 1230 -532 143 -39 322 -84 350 -88 17 -3 62 -12 100 -20 76
-17 81 -18 230 -41 143 -22 166 -25 242 -32 37 -3 79 -8 93 -10 118 -18 687
-26 875 -12 146 11 412 43 520 62 191 35 283 54 400 83 55 14 105 26 110 27
24 6 171 51 296 91 441 143 902 369 1303 637 32 22 259 186 291 210 80 62 256
208 305 253 308 283 495 488 722 790 94 126 288 409 288 421 0 3 15 28 33 57
66 104 287 528 287 552 0 2 13 33 29 67 15 35 32 74 36 88 4 14 11 30 15 35
16 20 114 301 164 465 65 216 136 533 161 713 4 27 8 57 10 67 7 39 14 88 20
155 4 39 9 84 11 100 19 144 26 672 12 880 -9 128 -30 332 -43 404 -7 44 -27
164 -31 196 -5 33 -26 134 -58 280 -10 46 -40 157 -71 265 -152 521 -372 998
-672 1455 -73 110 -231 331 -267 372 -6 7 -16 18 -21 25 -124 159 -203 246
-420 463 -260 260 -485 447 -775 644 -486 329 -955 549 -1550 726 -48 14 -282
74 -315 81 -60 12 -428 74 -474 79 -30 4 -61 8 -70 10 -9 1 -52 6 -96 10 -44
4 -98 9 -120 11 -49 6 -652 14 -656 10z"/>
</g>
</svg>
