<?xml version="1.0" standalone="no"?>
<!DOCTYPE svg PUBLIC "-//W3C//DTD SVG 20010904//EN"
 "http://www.w3.org/TR/2001/REC-SVG-20010904/DTD/svg10.dtd">
<svg version="1.0" xmlns="http://www.w3.org/2000/svg"
 width="404.000000pt" height="404.000000pt" viewBox="0 0 404.000000 404.000000"
 preserveAspectRatio="xMidYMid meet">
<metadata>
Created by potrace 1.14, written by Peter Selinger 2001-2017
</metadata>
<g transform="translate(0.000000,404.000000) scale(0.100000,-0.100000)"
fill="#000000" stroke="none">
<path d="M1610 3736 c-25 -7 -62 -21 -82 -30 -21 -10 -44 -16 -52 -13 -8 3
-26 -3 -40 -14 -14 -11 -26 -17 -26 -13 0 4 -8 -3 -19 -14 -10 -12 -20 -19
-23 -17 -9 9 -56 -72 -63 -108 -6 -30 -12 -35 -39 -40 -59 -9 -186 -59 -186
-73 0 -7 -5 -16 -12 -20 -7 -5 -8 -3 -2 7 20 33 -65 -49 -118 -114 -46 -57
-148 -238 -148 -264 0 -3 -12 -31 -27 -62 -24 -48 -28 -68 -27 -137 1 -91 17
-142 76 -245 21 -36 38 -73 38 -82 0 -9 16 -29 35 -44 30 -24 35 -34 35 -70 0
-24 -3 -43 -7 -43 -5 0 -15 -5 -23 -10 -12 -7 -11 -13 10 -37 22 -24 22 -25 3
-9 -22 18 -23 18 -23 1 0 -10 9 -49 20 -87 40 -137 59 -204 65 -238 10 -49 33
-90 50 -90 8 0 15 9 15 20 0 22 15 27 26 9 5 -8 9 -8 14 1 11 18 50 -6 50 -30
0 -11 4 -20 9 -20 6 0 11 -21 13 -47 2 -25 8 -48 15 -50 7 -3 10 6 8 24 -3 39
-37 152 -44 150 -13 -3 -71 62 -71 80 0 31 13 36 33 11 l18 -23 -5 46 c-2 26
-2 50 1 53 10 9 10 79 1 98 -11 23 1 68 16 62 18 -7 37 -62 24 -70 -7 -5 -6
-11 4 -18 8 -6 18 -21 22 -34 4 -12 12 -19 18 -16 6 4 8 -1 3 -15 -5 -15 -2
-21 9 -21 9 0 16 5 16 11 0 8 4 8 14 0 10 -9 16 -7 27 5 12 14 14 14 26 -3 11
-14 15 -15 22 -5 7 11 9 11 14 -2 6 -15 47 -22 60 -10 11 11 -4 33 -19 27 -8
-3 -14 -1 -14 5 0 5 18 9 39 8 31 0 37 -3 29 -13 -11 -13 0 -18 31 -13 12 1
13 -1 3 -13 -7 -8 -9 -22 -6 -32 6 -15 3 -17 -20 -11 -17 4 -34 1 -47 -8 -20
-13 -18 -14 20 -9 39 5 58 -8 29 -20 -7 -3 4 -6 25 -6 28 -1 37 3 37 15 0 14
3 14 15 4 10 -9 15 -9 15 -1 0 6 14 11 30 11 17 0 30 -5 30 -12 0 -7 8 -1 17
12 9 14 23 29 31 33 7 5 22 23 33 40 18 28 20 29 14 7 l-7 -25 23 25 c14 14
20 28 15 31 -5 4 0 26 12 50 12 24 24 64 28 89 4 25 11 53 16 63 5 11 5 17 -1
17 -6 0 -8 7 -5 15 4 8 12 15 20 15 8 0 14 5 14 10 0 6 10 21 21 33 l22 22 -6
-22 c-3 -16 -1 -20 9 -16 19 7 44 -15 44 -39 0 -27 54 -127 90 -167 16 -18 30
-30 30 -25 0 5 5 2 10 -6 7 -10 12 -12 18 -4 7 11 34 12 62 1 39 -14 89 -17
96 -5 4 7 4 10 -1 6 -12 -11 -35 11 -35 33 0 16 8 19 48 21 36 1 39 2 15 5
-18 2 -33 9 -33 14 0 5 6 9 13 8 6 -2 28 1 47 6 19 5 43 8 53 6 9 -1 18 4 19
11 2 22 5 32 12 50 4 9 5 21 2 26 -3 5 6 8 21 6 26 -3 63 14 63 28 0 5 -3 7
-8 5 -4 -1 -7 2 -7 8 0 5 6 9 13 7 8 -2 11 5 8 22 -3 19 -1 23 11 19 13 -5 15
-1 9 20 -5 22 -3 27 11 28 16 0 15 2 -2 9 -13 6 -15 9 -5 9 13 1 13 2 0 11
-13 8 -12 10 4 10 15 0 17 5 13 28 -3 17 0 33 10 44 8 9 12 22 8 27 -8 14 -25
14 -25 0 0 -5 5 -7 10 -4 6 3 10 1 10 -4 0 -18 -13 -12 -40 15 -13 14 -46 36
-72 48 -27 12 -45 25 -42 29 4 4 3 7 -2 8 -5 0 -26 1 -47 3 -21 2 -40 -1 -43
-6 -3 -4 -16 -8 -29 -8 -12 0 -25 -6 -28 -14 -3 -7 -26 -16 -51 -19 -25 -4
-54 -11 -63 -16 -10 -5 -32 -15 -50 -22 -22 -10 -33 -22 -38 -44 -6 -29 -6
-30 -22 -10 -13 16 -15 17 -10 3 4 -10 2 -18 -4 -18 -5 0 -14 -11 -21 -25 -6
-13 -15 -22 -19 -19 -5 3 -9 -10 -9 -28 0 -42 -14 -67 -23 -43 -4 9 -3 13 3
10 13 -8 13 5 0 25 -8 13 -10 12 -11 -5 -1 -11 -2 -26 -2 -32 1 -7 -4 -10 -9
-7 -5 3 -7 12 -4 20 3 8 0 14 -7 15 -7 0 -29 2 -50 3 -21 1 -42 8 -48 16 -9
13 -10 13 -8 0 4 -38 -1 -43 -21 -20 -11 13 -20 20 -20 17 0 -4 -8 1 -18 10
-11 10 -17 21 -15 26 4 6 -12 10 -20 5 -2 -2 -10 2 -18 9 -10 8 -20 9 -29 3
-8 -6 -37 -10 -65 -10 -36 0 -46 3 -35 10 9 6 10 10 3 10 -6 0 -18 3 -26 6 -9
3 -16 -3 -20 -16 -4 -17 -10 -20 -24 -13 -10 5 -33 8 -51 7 -17 -1 -30 2 -26
7 3 5 0 9 -5 9 -6 0 -11 -4 -11 -10 0 -5 -6 -7 -13 -4 -8 3 -20 -2 -27 -11 -7
-8 -21 -15 -32 -15 -11 0 -28 -5 -38 -10 -16 -8 -18 -8 -14 5 4 8 11 15 17 15
6 0 7 3 4 7 -4 3 -2 12 4 20 9 10 8 13 -5 13 -16 0 -16 1 -1 17 13 13 19 13
25 4 5 -10 12 -7 24 10 18 26 5 39 -19 19 -8 -7 -15 -9 -15 -5 0 4 11 16 25
27 14 11 25 26 25 33 0 8 8 19 18 24 16 9 15 11 -6 27 -13 9 -21 22 -18 29 9
24 -18 22 -43 -1 -14 -13 -27 -21 -30 -18 -3 2 5 12 18 20 18 13 20 19 10 30
-10 12 -14 12 -28 1 -50 -43 -76 -20 -76 67 0 44 -4 60 -13 58 -22 -4 -27 30
-7 44 10 8 14 14 8 14 -6 0 -9 9 -6 20 3 11 11 20 17 20 12 0 16 13 17 58 1
12 5 22 10 22 5 0 9 7 9 15 0 17 77 98 88 91 4 -2 13 2 20 10 7 8 10 14 7 14
-4 0 0 7 9 15 8 8 21 15 29 15 23 0 47 11 43 19 -3 4 10 8 27 10 18 1 43 4 57
5 14 2 32 0 40 -4 8 -4 33 -10 55 -14 22 -3 55 -10 74 -15 19 -6 38 -8 43 -5
5 3 20 -2 34 -11 14 -9 33 -14 41 -11 9 4 22 1 29 -5 8 -7 14 -7 14 -2 0 6 11
8 25 5 14 -2 22 -8 19 -13 -3 -5 1 -6 9 -3 19 7 130 -22 182 -47 22 -11 56
-22 76 -25 36 -6 99 -53 99 -73 0 -6 5 -11 10 -11 6 0 10 -7 10 -16 0 -9 9
-18 19 -21 11 -3 22 -11 25 -19 3 -8 14 -14 24 -14 10 0 24 -11 30 -25 7 -14
18 -28 26 -31 8 -3 12 -12 9 -21 -5 -12 1 -13 29 -8 30 6 36 3 46 -20 15 -34
15 -55 0 -56 -7 0 -2 -5 12 -11 21 -9 22 -12 8 -15 -14 -4 -16 -8 -8 -24 6
-10 8 -29 4 -43 -4 -19 -2 -24 13 -23 13 2 18 -5 17 -25 -1 -17 3 -25 12 -21
15 6 30 -59 18 -78 -5 -8 -3 -10 6 -4 10 6 12 1 8 -19 -3 -14 -1 -26 3 -26 5
0 9 -17 9 -39 0 -21 12 -79 26 -127 14 -49 27 -106 27 -127 2 -33 3 -36 14
-20 7 9 13 21 13 26 0 4 5 5 10 2 15 -10 12 -68 -6 -93 -8 -12 -14 -32 -12
-45 3 -20 5 -18 25 16 12 20 29 37 37 37 18 0 31 72 22 127 -6 35 16 147 40
208 7 18 6 19 -12 5 -10 -8 -29 -23 -41 -34 -37 -32 -27 1 12 39 34 34 34 35
10 35 -14 0 -25 5 -25 11 0 6 23 70 52 143 41 103 52 142 51 184 -1 29 -3 56
-6 58 -3 3 -16 -2 -30 -10 -24 -16 -25 -16 -35 11 -6 15 -13 46 -17 67 -7 42
-48 130 -65 141 -6 4 -8 10 -6 14 3 4 -11 27 -31 51 -19 25 -41 60 -48 78 -8
17 -19 32 -25 32 -6 0 -9 4 -6 9 15 24 -204 252 -285 295 -27 15 -54 24 -61
20 -7 -4 -8 -3 -4 4 7 11 -8 16 -42 15 -7 -1 -11 2 -7 5 12 12 -102 42 -233
62 -151 23 -179 23 -242 6z m635 -156 c3 -6 -1 -7 -9 -4 -18 7 -21 14 -7 14 6
0 13 -4 16 -10z m-1125 -154 c0 -2 -7 -7 -16 -10 -8 -3 -12 -2 -9 4 6 10 25
14 25 6z m-349 -533 c-12 -20 -14 -14 -5 12 4 9 9 14 11 11 3 -2 0 -13 -6 -23z
m339 -123 c0 -5 -4 -10 -10 -10 -5 0 -10 5 -10 10 0 6 5 10 10 10 6 0 10 -4
10 -10z m34 -54 c-3 -9 -10 -13 -15 -10 -5 3 -9 -4 -9 -14 0 -19 -23 -36 -33
-25 -6 6 11 39 31 61 6 7 12 19 12 25 0 7 5 5 10 -5 6 -9 7 -23 4 -32z m15
-52 c1 5 9 2 19 -7 9 -8 21 -16 25 -15 5 0 11 -3 15 -6 3 -3 0 -6 -7 -6 -8 0
-11 -7 -7 -15 3 -8 1 -15 -4 -15 -6 0 -10 6 -11 13 0 6 -5 0 -10 -14 -7 -20
-15 -26 -29 -22 -11 3 -20 9 -20 14 0 5 -8 6 -17 3 -14 -5 -15 -4 -4 4 8 6 11
18 6 31 -5 15 -1 29 11 42 17 19 19 19 25 2 4 -10 8 -14 8 -9z m529 -209 c-3
-3 -9 2 -12 12 -6 14 -5 15 5 6 7 -7 10 -15 7 -18z m-563 -132 c0 -6 3 -15 8
-19 10 -11 9 -44 -2 -44 -6 0 -13 5 -17 12 -11 18 -10 68 1 65 6 -2 10 -9 10
-14z"/>
<path d="M1131 2944 c0 -11 3 -14 6 -6 3 7 2 16 -1 19 -3 4 -6 -2 -5 -13z"/>
<path d="M2385 2860 c3 -5 8 -10 11 -10 2 0 4 5 4 10 0 6 -5 10 -11 10 -5 0
-7 -4 -4 -10z"/>
<path d="M1163 2833 c-15 -6 -17 -39 -3 -48 6 -3 10 2 10 12 0 11 5 24 12 31
12 12 3 15 -19 5z"/>
<path d="M2380 2691 c0 -9 17 -18 34 -19 5 0 13 -6 17 -14 7 -10 9 -8 9 6 0
12 -5 16 -15 12 -9 -3 -15 0 -15 9 0 8 -7 15 -15 15 -8 0 -15 -4 -15 -9z"/>
<path d="M1445 2599 c-4 -6 -5 -12 -2 -15 2 -3 7 2 10 11 7 17 1 20 -8 4z"/>
<path d="M1700 2501 c0 -6 4 -13 10 -16 6 -3 7 1 4 9 -7 18 -14 21 -14 7z"/>
<path d="M2165 2190 c-3 -5 -1 -10 4 -10 6 0 11 5 11 10 0 6 -2 10 -4 10 -3 0
-8 -4 -11 -10z"/>
<path d="M2662 2157 c-8 -9 -12 -25 -10 -36 5 -32 30 -9 26 24 -3 25 -5 27
-16 12z"/>
<path d="M1736 2105 c4 -8 8 -15 10 -15 2 0 4 7 4 15 0 8 -4 15 -10 15 -5 0
-7 -7 -4 -15z"/>
<path d="M2268 2113 c7 -3 16 -2 19 1 4 3 -2 6 -13 5 -11 0 -14 -3 -6 -6z"/>
<path d="M1165 2090 c3 -5 8 -10 11 -10 2 0 4 5 4 10 0 6 -5 10 -11 10 -5 0
-7 -4 -4 -10z"/>
<path d="M1720 2065 c0 -8 5 -15 10 -15 6 0 10 7 10 15 0 8 -4 15 -10 15 -5 0
-10 -7 -10 -15z"/>
<path d="M1270 2020 c0 -5 5 -10 11 -10 5 0 7 5 4 10 -3 6 -8 10 -11 10 -2 0
-4 -4 -4 -10z"/>
<path d="M2020 2016 c0 -2 16 -27 35 -56 33 -49 45 -93 28 -103 -5 -3 -32 0
-62 6 -42 9 -55 9 -59 -1 -2 -6 -15 -12 -28 -12 -15 0 -23 -4 -19 -10 4 -7 -2
-9 -17 -6 -12 3 -34 8 -48 11 -14 3 -37 8 -52 11 -15 3 -33 4 -40 1 -7 -2 -15
-4 -18 -4 -3 0 -14 -5 -26 -11 -11 -6 -26 -7 -34 -2 -20 13 -23 53 -4 67 9 6
13 16 10 21 -3 6 1 12 8 15 8 3 16 1 18 -4 5 -14 38 0 38 16 0 7 -9 23 -19 36
-18 22 -20 22 -26 7 -4 -10 -14 -18 -22 -18 -21 0 -73 -58 -73 -81 0 -10 -4
-19 -8 -19 -5 0 -9 -6 -9 -12 -1 -25 -8 -42 -28 -62 -18 -19 -18 -21 -2 -24 9
-2 17 -8 17 -14 0 -6 7 -5 16 3 14 11 18 10 30 -6 8 -10 14 -24 14 -31 0 -7 5
-14 11 -16 7 -2 7 -18 -1 -51 -7 -26 -16 -44 -21 -41 -13 8 -11 -10 3 -24 9
-9 8 -12 -5 -12 -9 0 -17 -5 -17 -11 0 -5 -4 -8 -9 -5 -5 4 -17 3 -26 0 -13
-5 -14 -8 -3 -15 22 -14 -12 -11 -70 6 -29 9 -57 13 -64 9 -8 -5 -9 2 -4 22
l6 29 -15 -27 c-11 -19 -20 -25 -35 -21 -11 3 -21 13 -22 22 0 9 -2 21 -2 28
-1 6 -5 15 -9 19 -14 15 -6 24 21 24 21 0 24 2 12 10 -8 5 -10 10 -5 10 6 0 3
5 -5 10 -9 6 -10 10 -3 10 16 0 32 30 38 72 5 34 -8 68 -22 55 -4 -5 -1 -13 7
-18 11 -8 10 -9 -7 -4 -19 5 -22 3 -16 -10 5 -15 3 -15 -16 -4 -11 8 -21 19
-21 26 0 7 -7 13 -16 13 -9 0 -12 -5 -8 -12 4 -7 3 -8 -4 -4 -7 4 -12 14 -12
22 0 8 -3 13 -7 11 -5 -3 -18 -1 -29 3 -16 6 -21 15 -18 37 2 15 1 20 -2 11
-4 -15 -9 -16 -25 -7 -22 11 -50 -3 -48 -25 0 -7 2 -6 6 2 2 6 14 12 26 11 12
0 16 -3 10 -6 -15 -5 -18 -70 -4 -75 5 -1 12 -19 16 -38 7 -33 6 -34 -9 -15
-21 27 -21 3 0 -41 13 -28 14 -40 6 -60 -27 -58 42 -240 127 -336 l51 -56 -22
-49 c-19 -41 -22 -65 -22 -167 0 -83 4 -121 12 -124 7 -2 12 -14 12 -26 0 -24
63 -161 88 -188 8 -10 19 -15 25 -11 6 3 7 1 3 -5 -4 -7 3 -22 17 -34 13 -13
26 -31 30 -40 3 -10 18 -20 32 -24 14 -3 25 -11 24 -18 -3 -25 2 -36 16 -36 8
0 15 -4 15 -10 0 -5 -4 -10 -10 -10 -5 0 -10 -6 -10 -14 0 -7 -10 -20 -23 -29
-42 -27 -194 -182 -221 -225 -26 -42 -50 -54 -59 -29 -4 8 -6 8 -6 0 -1 -6 10
-25 25 -42 26 -32 28 -32 99 1 12 5 27 10 35 12 26 5 55 19 62 30 5 7 8 7 8
-1 0 -7 7 -13 15 -13 8 0 15 7 15 16 0 13 2 13 14 1 10 -9 32 -12 70 -10 57 3
70 -6 46 -35 -7 -9 -7 -9 2 -2 19 15 32 12 18 -5 -8 -9 -9 -15 -2 -15 6 0 13
4 16 9 4 5 14 8 24 6 9 -2 22 -4 27 -5 6 0 -3 -7 -20 -15 -29 -14 -29 -14 -5
-14 41 2 44 0 25 -21 -17 -19 -16 -19 11 -14 16 2 24 1 18 -3 -15 -11 -25 -43
-14 -43 6 0 10 -4 10 -10 0 -5 -8 -10 -17 -10 -27 0 -2 -19 34 -26 31 -6 31
-6 38 42 7 60 33 114 54 115 11 0 12 2 3 6 -19 7 15 43 42 44 17 1 18 2 4 6
-14 4 -16 8 -8 24 11 20 30 26 30 8 0 -5 -4 -7 -10 -4 -5 3 -10 1 -10 -4 0
-20 27 -11 53 18 14 16 34 34 44 39 10 6 14 14 10 18 -5 5 -11 4 -15 -2 -13
-19 -40 -23 -46 -7 -4 11 -2 14 9 10 8 -4 17 -2 20 3 4 6 15 10 25 10 10 0 24
8 29 17 7 12 10 14 11 4 0 -11 3 -11 18 -1 9 7 6 2 -8 -11 -14 -13 -27 -28
-28 -34 -2 -5 -13 -21 -25 -35 -12 -14 -20 -31 -19 -39 2 -7 -1 -10 -6 -7 -5
3 -16 -2 -23 -11 -8 -9 -9 -14 -3 -10 7 4 9 -5 5 -26 -4 -31 -5 -31 -11 -7
l-6 25 -8 -23 c-4 -12 -11 -20 -16 -17 -4 3 -10 -2 -14 -10 -3 -8 -14 -15 -25
-15 -11 0 -23 -5 -26 -10 -4 -6 -11 -8 -16 -5 -5 4 -9 1 -9 -4 0 -10 14 -15
33 -12 5 1 7 -4 4 -11 -2 -7 -10 -12 -16 -10 -6 1 -11 -2 -11 -8 0 -5 4 -10
10 -10 5 0 7 -7 4 -15 -4 -8 -10 -13 -14 -10 -5 3 -11 1 -15 -5 -3 -5 1 -10
11 -10 9 0 23 -8 30 -17 11 -16 12 -12 7 22 -6 48 11 68 54 63 34 -4 55 -41
42 -75 -4 -12 -5 -23 0 -23 5 0 11 9 14 19 2 11 15 21 28 24 23 4 23 4 2 6
-13 0 -24 10 -28 22 -8 24 10 39 57 50 25 6 26 4 17 -13 -13 -25 6 -52 20 -30
7 11 9 10 14 -2 5 -11 1 -16 -13 -16 -11 0 -20 -4 -20 -9 0 -10 26 -9 36 2 4
4 17 7 28 6 12 0 15 -3 9 -6 -7 -2 -13 -10 -13 -16 0 -6 10 -1 23 11 27 26 42
28 33 7 -3 -8 -1 -15 4 -15 6 0 10 7 10 15 0 8 8 15 17 15 15 0 14 2 -3 14
-10 8 -21 11 -24 7 -6 -9 -50 -21 -50 -14 0 18 33 32 68 29 28 -3 42 0 46 9 3
8 0 16 -7 18 -7 2 -5 3 4 2 9 -1 24 6 33 16 9 11 12 19 8 19 -5 0 -9 7 -9 15
0 8 5 15 10 15 5 0 6 8 3 17 -4 10 -4 14 0 10 4 -4 12 -3 18 2 6 5 30 6 53 1
32 -5 46 -4 54 7 7 7 14 11 16 9 3 -3 15 -1 28 4 13 5 25 6 28 3 3 -3 32 -5
64 -5 82 0 85 1 77 13 -3 6 -1 15 6 19 8 5 15 19 17 32 2 13 10 28 19 35 9 6
11 14 6 17 -11 6 -4 46 7 46 3 0 6 18 6 39 0 22 -3 37 -7 35 -5 -3 -8 -17 -8
-32 0 -27 -47 -162 -57 -162 -8 0 -48 54 -46 61 1 4 -25 33 -58 65 -96 95
-114 114 -112 124 2 5 -6 14 -17 20 -11 6 -20 16 -20 22 0 7 6 6 16 -2 12 -11
15 -11 12 1 -4 17 -39 45 -53 41 -5 -2 5 10 23 27 30 28 43 49 22 36 -6 -4 -5
4 1 19 7 14 17 23 22 19 7 -4 8 0 4 11 -6 14 -3 17 8 12 9 -3 14 -2 11 3 -3 4
2 17 10 27 9 10 12 13 8 5 -4 -9 -3 -12 3 -8 6 4 8 18 6 32 -3 13 -9 22 -14
19 -5 -3 -9 -3 -9 1 0 3 12 10 26 15 17 7 24 15 20 25 -3 8 0 15 6 15 9 0 9 3
1 11 -9 9 -8 16 3 27 8 8 13 21 10 28 -3 8 -1 14 5 14 5 0 7 12 5 27 -3 15 -1
32 5 39 6 7 8 18 4 24 -4 6 -8 39 -10 73 -3 69 -22 154 -39 177 -7 8 -18 27
-26 43 -17 34 -33 35 -48 1 -7 -14 -16 -23 -21 -20 -15 10 -43 -6 -37 -20 3
-7 1 -16 -4 -19 -4 -3 -10 0 -12 7 -3 8 -12 2 -22 -15 -10 -15 -25 -27 -33
-27 -10 0 -12 -6 -8 -20 4 -11 2 -20 -4 -20 -6 0 -11 6 -11 14 0 8 -5 18 -11
22 -9 5 -10 -1 -5 -20 7 -29 1 -31 -40 -16 -22 9 -25 8 -16 -2 11 -14 -10 -43
-22 -30 -4 3 -4 -2 0 -12 5 -13 4 -17 -4 -12 -8 5 -10 2 -6 -8 8 -21 -6 -20
-22 1 -7 10 -16 14 -20 10 -5 -4 -2 -12 6 -17 12 -8 10 -10 -7 -10 -12 0 -25
5 -28 10 -4 6 -15 8 -26 5 -13 -4 -19 -2 -19 9 0 20 -19 21 -26 1 -10 -24 -27
-17 -22 9 4 19 1 24 -12 21 -13 -3 -16 2 -13 16 3 11 0 19 -6 19 -7 0 -9 -5
-5 -11 4 -7 1 -10 -7 -7 -8 3 -13 12 -11 22 2 10 -4 16 -16 16 -15 0 -19 -7
-18 -27 1 -20 -4 -28 -16 -28 -22 0 -31 -11 -35 -40 -4 -30 26 -35 34 -6 3 12
14 19 29 19 20 -1 22 -3 12 -15 -9 -11 -13 -12 -16 -3 -3 7 -10 3 -19 -10 -13
-19 -14 -24 -2 -32 10 -6 6 -7 -11 -3 -14 4 -31 15 -38 26 -13 16 -16 17 -37
3 -21 -14 -23 -13 -28 6 -4 17 -2 20 12 15 21 -6 51 3 51 16 0 5 -6 9 -14 9
-10 0 -13 9 -11 28 2 15 4 30 4 33 1 3 11 5 24 4 12 -1 29 3 37 11 8 7 18 13
23 13 4 0 28 10 54 21 26 11 57 23 69 26 20 5 35 24 38 46 1 4 9 16 18 28 12
13 14 20 5 20 -8 0 -7 4 3 10 13 9 13 10 0 10 -13 0 -13 1 0 10 13 8 12 10 -2
10 -10 0 -27 -9 -38 -20 -11 -11 -26 -17 -35 -14 -8 4 -22 1 -30 -6 -11 -9
-18 -9 -30 3 -13 14 -12 16 15 22 16 4 35 3 41 -1 8 -4 9 -3 5 4 -9 16 35 32
68 26 18 -3 29 2 40 18 9 12 16 19 16 14 0 -5 7 -3 15 4 8 6 19 9 25 5 6 -4
18 -1 27 7 15 11 16 11 10 -4 -4 -12 -2 -18 8 -18 8 0 15 4 15 9 0 4 19 21 43
37 23 15 44 30 46 31 3 2 -5 14 -17 26 -12 13 -19 26 -16 30 9 9 -21 37 -40
37 -8 0 -18 5 -21 10 -4 6 -11 8 -16 4 -6 -4 -6 -11 2 -20 6 -8 9 -17 5 -21
-3 -3 -6 0 -6 7 0 9 -5 8 -13 -5 -14 -19 -43 -12 -31 7 5 7 1 9 -9 5 -9 -3
-18 -1 -21 6 -3 9 -5 8 -5 -1 -1 -7 -5 -11 -10 -7 -5 3 -12 1 -16 -5 -6 -9 7
-14 28 -11 4 0 7 -5 7 -12 0 -10 -17 -13 -67 -11 -91 4 -92 4 -119 29 -30 27
-30 31 -1 38 12 2 30 8 40 12 13 5 17 2 17 -11 0 -16 2 -17 10 -4 9 13 12 12
25 -4 8 -11 15 -15 15 -10 0 6 -3 14 -7 18 -14 14 -11 80 5 124 8 23 12 45 9
49 -4 3 -2 12 4 20 9 10 8 13 -2 13 -9 1 -8 4 4 11 14 8 22 7 33 -8 14 -17 15
-17 6 2 -5 11 -8 25 -6 30 4 11 -18 35 -77 85 -34 28 -49 36 -49 26z m-790
-166 c0 -5 -4 -10 -10 -10 -5 0 -10 5 -10 10 0 6 5 10 10 10 6 0 10 -4 10 -10z
m154 -115 c3 -8 1 -15 -4 -15 -6 0 -10 7 -10 15 0 8 2 15 4 15 2 0 6 -7 10
-15z m323 -117 c-3 -8 -6 -5 -6 6 -1 11 2 17 5 13 3 -3 4 -12 1 -19z m53 -32
c0 -2 -7 -6 -15 -10 -8 -3 -15 -1 -15 4 0 6 7 10 15 10 8 0 15 -2 15 -4z m140
-6 c0 -5 -7 -7 -15 -4 -8 4 -15 8 -15 10 0 2 7 4 15 4 8 0 15 -4 15 -10z
m-219 -33 c-10 -9 -11 -8 -5 6 3 10 9 15 12 12 3 -3 0 -11 -7 -18z m-419 -29
c-7 -7 -12 -8 -12 -2 0 14 12 26 19 19 2 -3 -1 -11 -7 -17z m650 -105 c-6 -2
-10 -8 -7 -13 3 -4 -5 -6 -17 -2 -21 5 -21 6 -2 13 10 4 24 8 29 8 6 -1 4 -3
-3 -6z m549 -115 c-3 -24 -6 -35 -9 -25 -4 18 -4 18 -18 0 -7 -10 -14 -26 -14
-36 0 -11 -6 -17 -16 -15 -8 2 -14 8 -14 13 1 6 6 9 12 7 5 -1 7 2 3 8 -3 5 5
22 19 37 15 15 26 33 26 40 0 7 3 13 8 13 4 0 5 -19 3 -42z m2 -65 c-7 -18
-33 -17 -33 1 0 8 8 14 19 13 11 0 17 -6 14 -14z m-685 -24 c-2 -6 -27 -19
-55 -29 -51 -18 -52 -18 -40 1 12 19 25 24 65 20 12 -1 22 3 22 9 0 5 3 10 6
10 3 0 4 -5 2 -11z m48 -24 c-4 -15 -13 -25 -24 -25 -16 1 -16 1 1 14 21 16
22 27 2 20 -8 -4 -15 -1 -15 4 0 10 30 22 39 16 2 -2 1 -15 -3 -29z m561 -12
c-3 -10 -5 -4 -5 12 0 17 2 24 5 18 2 -7 2 -21 0 -30z m33 27 c0 -5 -4 -10
-10 -10 -5 0 -10 5 -10 10 0 6 5 10 10 10 6 0 10 -4 10 -10z m-740 -10 c0 -5
-7 -10 -15 -10 -8 0 -15 5 -15 10 0 6 7 10 15 10 8 0 15 -4 15 -10z m285 -10
c-3 -5 -11 -10 -16 -10 -6 0 -7 5 -4 10 3 6 11 10 16 10 6 0 7 -4 4 -10z m405
-10 c0 -5 -5 -10 -11 -10 -5 0 -7 5 -4 10 3 6 8 10 11 10 2 0 4 -4 4 -10z
m-467 -25 c-7 -21 -12 -19 -10 4 0 11 5 18 9 15 4 -3 5 -11 1 -19z m36 -186
c17 -6 31 -17 31 -25 0 -10 -6 -11 -24 -4 -13 5 -27 6 -32 2 -4 -4 -4 -1 0 6
4 7 1 12 -9 12 -9 0 -13 5 -10 10 8 12 5 12 44 -1z m98 -54 c0 -8 -4 -15 -9
-15 -4 0 -8 7 -8 15 0 8 4 15 8 15 5 0 9 -7 9 -15z m-343 -384 c4 -5 -3 -7
-14 -4 -23 6 -26 13 -6 13 8 0 17 -4 20 -9z m486 -18 c-1 -19 -19 -34 -46 -39
-28 -5 -28 -4 -9 10 11 9 26 16 33 16 6 0 12 5 12 10 0 6 2 10 5 10 3 0 5 -3
5 -7z m-380 -44 c0 -10 -16 -11 -48 -2 -15 3 -19 8 -12 13 14 9 60 1 60 -11z
m249 -16 c-9 -10 -9 -17 -2 -21 7 -5 6 -11 -3 -20 -12 -11 -14 -10 -14 5 0 32
12 63 22 57 5 -3 4 -12 -3 -21z m28 -78 c0 -8 -2 -13 -5 -11 -2 3 -16 0 -30
-5 -30 -11 -24 -3 10 17 13 6 23 12 24 13 0 1 1 -6 1 -14z m-412 -123 c-11 -2
-32 -7 -47 -12 -22 -7 -28 -6 -28 6 0 10 6 13 18 10 9 -3 23 -2 31 3 8 5 21 6
30 3 13 -5 12 -7 -4 -10z m610 -42 c-3 -5 -12 -10 -18 -10 -7 0 -6 4 3 10 19
12 23 12 15 0z m-35 -4 c0 -3 -4 -8 -10 -11 -5 -3 -10 -1 -10 4 0 6 5 11 10
11 6 0 10 -2 10 -4z m-192 -25 c11 -7 11 -9 -1 -14 -9 -3 -18 1 -21 9 -6 16 2
18 22 5z m267 -11 c-3 -5 -10 -10 -16 -10 -5 0 -9 5 -9 10 0 6 7 10 16 10 8 0
12 -4 9 -10z m-36 -4 c-10 -10 -59 -14 -59 -5 0 5 14 9 32 9 17 0 29 -2 27 -4z
m-14 -36 c3 -5 1 -10 -4 -10 -6 0 -11 5 -11 10 0 6 2 10 4 10 3 0 8 -4 11 -10z
m-77 -15 c3 -3 -9 -5 -26 -5 -18 0 -32 5 -32 10 0 10 47 6 58 -5z"/>
<path d="M1370 1990 c0 -5 10 -10 23 -10 18 0 19 2 7 10 -19 13 -30 13 -30 0z"/>
<path d="M1612 1975 c0 -16 2 -22 5 -12 2 9 2 23 0 30 -3 6 -5 -1 -5 -18z"/>
<path d="M1207 1957 c-3 -9 -2 -19 4 -23 15 -9 18 -2 9 20 -6 17 -7 18 -13 3z"/>
<path d="M2590 1940 c-8 -5 -12 -11 -9 -14 2 -3 11 -1 19 4 8 5 12 11 9 14 -2
3 -11 1 -19 -4z"/>
<path d="M1355 1920 c-8 -13 9 -20 24 -11 10 6 9 10 -3 14 -8 3 -18 2 -21 -3z"/>
<path d="M1055 1830 c-10 -17 16 -41 39 -38 12 2 19 8 16 13 -3 6 -9 9 -15 7
-24 -8 -30 -6 -29 11 2 19 -2 22 -11 7z"/>
<path d="M2449 1752 c-3 -20 -2 -29 4 -23 5 5 7 19 5 32 -3 20 -5 19 -9 -9z"/>
<path d="M1158 1733 c7 -3 16 -2 19 1 4 3 -2 6 -13 5 -11 0 -14 -3 -6 -6z"/>
<path d="M2477 1719 c4 -13 8 -18 11 -10 2 7 -1 18 -6 23 -8 8 -9 4 -5 -13z"/>
<path d="M1488 1713 c7 -3 16 -2 19 1 4 3 -2 6 -13 5 -11 0 -14 -3 -6 -6z"/>
<path d="M2315 1670 c-3 -6 1 -7 9 -4 18 7 21 14 7 14 -6 0 -13 -4 -16 -10z"/>
<path d="M2517 1610 c-24 -80 -25 -88 -6 -93 30 -8 40 23 24 69 -8 23 -15 33
-18 24z m23 -61 c0 -6 -4 -7 -10 -4 -5 3 -10 11 -10 16 0 6 5 7 10 4 6 -3 10
-11 10 -16z"/>
<path d="M1470 1600 c-8 -5 -10 -10 -5 -10 6 0 17 5 25 10 8 5 11 10 5 10 -5
0 -17 -5 -25 -10z"/>
<path d="M2490 1499 c0 -5 5 -9 10 -9 16 0 12 -22 -7 -36 -14 -10 -15 -15 -6
-23 7 -6 11 -8 9 -5 -3 3 4 15 15 27 24 27 24 43 -1 50 -11 3 -20 1 -20 -4z"/>
<path d="M2341 1464 c-18 -21 -6 -30 14 -11 8 9 15 18 15 21 0 11 -15 5 -29
-10z"/>
<path d="M2273 1435 c-3 -9 -3 -18 -1 -21 3 -3 8 4 11 16 6 23 -1 27 -10 5z"/>
<path d="M2349 1423 c-13 -16 -12 -17 4 -4 9 7 17 15 17 17 0 8 -8 3 -21 -13z"/>
<path d="M2387 1383 c-4 -3 -7 -11 -7 -17 0 -6 5 -5 12 2 6 6 9 14 7 17 -3 3
-9 2 -12 -2z"/>
<path d="M1903 1223 c-15 -5 -17 -23 -4 -23 5 0 11 7 15 15 3 8 4 15 3 14 -1
0 -8 -3 -14 -6z"/>
<path d="M2675 1130 c-8 -13 23 -70 36 -67 7 1 14 -4 17 -12 3 -10 0 -12 -13
-7 -14 5 -16 2 -12 -16 3 -13 9 -54 13 -93 4 -38 9 -73 10 -77 1 -5 2 -36 3
-70 1 -73 11 -71 17 4 6 81 8 88 17 88 4 0 4 8 -1 17 -7 11 -5 21 4 31 8 7 14
22 14 33 0 10 4 19 8 19 7 0 2 69 -6 95 -1 3 -2 9 -2 15 0 9 -75 50 -91 50 -4
0 -11 -4 -14 -10z"/>
<path d="M1235 950 c-10 -32 -13 -90 -5 -90 7 0 21 102 15 108 -2 2 -6 -6 -10
-18z"/>
<path d="M1139 948 c-6 -50 18 -108 44 -108 8 0 7 4 -3 10 -12 7 -12 10 -1 10
8 0 11 6 7 16 -4 9 -1 23 5 30 8 10 8 14 0 14 -6 0 -11 9 -11 20 0 22 -39 29
-41 8z"/>
<path d="M1065 903 c-15 -16 -37 -44 -50 -65 -14 -20 -29 -39 -35 -43 -6 -3
-8 -11 -5 -16 4 -5 -5 -13 -18 -18 -13 -5 -31 -21 -41 -35 -9 -15 -21 -24 -25
-21 -5 3 -11 -2 -15 -10 -3 -8 0 -15 6 -15 7 0 6 -5 -2 -15 -9 -10 -9 -15 -1
-15 6 0 11 -4 11 -10 0 -5 -6 -10 -14 -10 -8 0 -16 -7 -20 -15 -3 -9 0 -15 9
-15 7 0 17 -5 20 -10 4 -6 2 -9 -3 -8 -6 2 -12 -1 -14 -7 -1 -5 10 -12 26 -13
26 -3 28 -2 17 12 -11 14 -11 16 4 16 13 0 16 6 11 24 -6 25 14 55 37 57 7 0
3 4 -8 9 -15 7 -16 9 -4 9 19 1 32 38 17 47 -13 8 10 24 34 24 15 0 16 -4 7
-27 -11 -29 0 -42 36 -44 19 0 19 -1 1 -8 -17 -7 -17 -8 -2 -24 19 -19 34 -21
54 -8 11 6 10 11 -3 25 -15 15 -15 17 9 26 18 7 24 14 19 26 -5 13 -3 15 8 9
12 -8 12 -6 0 8 -7 9 -20 17 -27 17 -8 0 -14 7 -14 15 0 8 5 15 11 15 5 0 7 5
4 10 -3 6 -2 10 3 10 18 0 23 33 7 50 -8 9 -16 29 -17 43 -1 15 -3 27 -5 27
-1 0 -14 -12 -28 -27z m42 -79 c-3 -3 -12 -4 -19 -1 -8 3 -5 6 6 6 11 1 17 -2
13 -5z"/>
<path d="M1212 821 c-7 -4 -10 -15 -6 -24 3 -10 1 -24 -6 -32 -10 -12 -9 -15
3 -15 10 0 14 -6 11 -15 -4 -9 0 -15 10 -15 13 0 16 11 16 49 0 52 -7 65 -28
52z"/>
<path d="M1235 671 c-3 -5 -1 -12 5 -16 5 -3 10 1 10 9 0 18 -6 21 -15 7z"/>
<path d="M1100 620 c0 -5 4 -10 9 -10 6 0 13 5 16 10 3 6 -1 10 -9 10 -9 0
-16 -4 -16 -10z"/>
<path d="M2731 594 c0 -11 3 -14 6 -6 3 7 2 16 -1 19 -3 4 -6 -2 -5 -13z"/>
<path d="M2731 554 c0 -11 3 -14 6 -6 3 7 2 16 -1 19 -3 4 -6 -2 -5 -13z"/>
<path d="M898 523 c-10 -2 -18 -8 -18 -13 0 -4 9 -6 20 -3 11 3 20 9 20 14 0
5 -1 8 -2 8 -2 -1 -11 -3 -20 -6z"/>
<path d="M1246 502 c-3 -6 -1 -14 5 -17 15 -10 25 3 12 16 -7 7 -13 7 -17 1z"/>
<path d="M1268 364 c-8 -8 3 -44 14 -44 5 0 4 8 -1 19 -6 10 -7 21 -4 25 3 3
4 6 1 6 -2 0 -7 -3 -10 -6z"/>
<path d="M1696 115 c-3 -8 -1 -15 4 -15 6 0 10 7 10 15 0 8 -2 15 -4 15 -2 0
-6 -7 -10 -15z"/>
<path d="M2305 109 c-3 -4 2 -6 10 -5 21 3 28 13 10 13 -9 0 -18 -4 -20 -8z"/>
<path d="M1713 78 c-2 -5 10 -8 26 -8 17 0 31 3 31 8 0 4 -12 7 -26 7 -14 0
-28 -3 -31 -7z"/>
<path d="M2345 70 c-3 -5 1 -10 10 -10 9 0 13 5 10 10 -3 6 -8 10 -10 10 -2 0
-7 -4 -10 -10z"/>
<path d="M2310 60 c0 -5 5 -10 10 -10 6 0 10 5 10 10 0 6 -4 10 -10 10 -5 0
-10 -4 -10 -10z"/>
</g>
</svg>
