<?xml version="1.0" standalone="no"?>
<!DOCTYPE svg PUBLIC "-//W3C//DTD SVG 20010904//EN"
 "http://www.w3.org/TR/2001/REC-SVG-20010904/DTD/svg10.dtd">
<svg version="1.0" xmlns="http://www.w3.org/2000/svg"
 width="1080.000000pt" height="1080.000000pt" viewBox="0 0 1080.000000 1080.000000"
 preserveAspectRatio="xMidYMid meet">
<metadata>
Created by potrace 1.14, written by Peter Selinger 2001-2017
</metadata>
<g transform="translate(0.000000,1080.000000) scale(0.100000,-0.100000)"
fill="#000000" stroke="none">
<path d="M5149 10796 c-2 -2 -60 -6 -129 -10 -69 -4 -137 -8 -150 -10 -14 -3
-52 -7 -85 -10 -33 -3 -69 -8 -80 -10 -11 -2 -47 -7 -80 -11 -33 -3 -78 -10
-100 -15 -22 -5 -56 -11 -75 -14 -31 -5 -83 -15 -160 -31 -534 -109 -1087
-319 -1561 -591 -141 -81 -380 -236 -489 -317 -36 -26 -78 -58 -94 -70 -335
-249 -748 -655 -1000 -982 -316 -409 -570 -847 -745 -1285 -81 -201 -156 -416
-187 -535 -2 -5 -15 -50 -29 -100 -14 -49 -27 -99 -30 -110 -2 -11 -17 -81
-33 -155 -27 -124 -36 -173 -48 -255 -2 -16 -6 -35 -8 -42 -3 -6 -8 -38 -11
-70 -3 -32 -8 -67 -10 -78 -2 -11 -7 -49 -10 -85 -4 -36 -8 -76 -11 -90 -26
-164 -26 -786 2 -1048 11 -106 14 -139 19 -167 2 -16 7 -48 10 -70 3 -22 8
-53 10 -70 3 -16 7 -41 9 -55 18 -114 60 -320 87 -425 12 -44 22 -87 24 -96
15 -73 110 -358 181 -541 284 -732 690 -1348 1259 -1909 326 -321 732 -626
1131 -850 619 -347 1261 -556 2009 -654 178 -23 318 -30 640 -30 293 0 438 6
575 24 41 6 98 13 125 16 552 66 1133 242 1660 500 249 122 408 213 605 344
125 83 425 301 440 320 3 3 46 40 95 80 126 105 492 473 611 616 358 428 653
905 844 1361 23 55 46 108 51 119 56 122 205 583 234 726 2 8 10 44 19 80 8
35 23 102 31 149 9 47 20 105 25 130 5 25 12 66 15 91 3 25 8 59 10 75 12 71
15 93 20 149 4 33 8 76 11 95 25 217 25 837 -1 1045 -2 17 -7 57 -10 90 -11
95 -14 116 -31 221 -9 55 -18 113 -20 129 -3 17 -12 62 -20 100 -9 39 -19 90
-24 115 -14 70 -16 79 -43 180 -33 125 -72 257 -103 350 -41 122 -126 344
-135 355 -5 5 -9 15 -9 21 0 51 -368 758 -402 772 -4 2 -8 8 -8 13 0 5 -32 58
-72 117 -484 722 -1108 1299 -1871 1731 -337 190 -796 380 -1152 477 -95 25
-288 75 -310 80 -53 11 -427 74 -474 79 -30 4 -61 8 -70 10 -9 1 -52 6 -96 10
-44 4 -98 9 -120 11 -50 6 -651 14 -656 10z m641 -210 c60 -6 118 -11 210 -21
19 -2 53 -6 75 -9 22 -3 56 -7 75 -10 45 -6 158 -24 190 -31 14 -3 39 -8 55
-10 196 -34 632 -156 805 -225 25 -10 99 -39 165 -65 121 -48 444 -202 565
-270 431 -241 799 -521 1145 -870 476 -479 791 -938 1089 -1588 109 -237 287
-786 320 -987 3 -19 8 -46 12 -60 3 -14 7 -34 9 -45 2 -11 12 -72 23 -135 19
-104 29 -180 37 -265 2 -16 6 -48 9 -70 13 -99 21 -290 21 -530 -1 -223 -4
-308 -20 -510 -2 -32 -12 -109 -20 -165 -3 -19 -7 -51 -9 -70 -4 -32 -16 -106
-31 -185 -3 -16 -10 -55 -16 -85 -94 -502 -311 -1083 -579 -1550 -237 -414
-509 -770 -847 -1108 -74 -74 -128 -120 -135 -116 -6 4 -8 3 -5 -3 4 -6 -1
-17 -10 -24 -9 -8 -14 -9 -10 -3 4 7 -2 14 -14 17 -13 4 -19 10 -14 19 3 7 0
5 -8 -5 -13 -16 -15 -16 -21 -2 -3 9 -2 14 2 11 5 -3 9 1 9 9 0 13 -5 12 -26
-2 -20 -13 -23 -13 -14 -1 13 15 8 28 -9 28 -5 0 -6 -6 -3 -12 4 -7 -2 -3 -13
10 -11 12 -24 22 -29 22 -5 0 -16 11 -23 25 -7 14 -15 23 -18 20 -3 -2 1 -13
9 -22 12 -16 12 -17 -2 -6 -9 7 -19 10 -22 7 -4 -4 -4 3 -2 15 3 15 0 19 -8
14 -18 -11 -38 -12 -31 -2 3 5 10 6 16 3 7 -4 8 -2 4 4 -5 9 -13 9 -28 1 -11
-6 -18 -7 -15 -2 3 5 2 15 -3 23 -7 12 -11 12 -25 0 -9 -7 -15 -9 -14 -4 6 25
-14 42 -46 39 -29 -2 -33 1 -25 15 6 12 5 17 -6 17 -7 0 -14 -7 -15 -16 -1 -9
-4 -5 -8 9 -7 22 1 33 63 91 242 226 407 407 614 674 175 227 404 618 534 915
180 409 323 919 364 1295 3 33 8 67 9 76 20 107 29 813 12 969 -83 763 -287
1386 -658 2003 -278 461 -629 870 -1049 1217 -140 116 -497 370 -520 370 -9 0
-14 14 -11 33 0 4 -5 6 -11 5 -7 -2 -12 3 -10 11 3 12 0 12 -12 2 -11 -9 -16
-9 -22 0 -4 8 -3 9 4 5 20 -12 13 2 -12 27 -14 14 -28 22 -33 18 -4 -3 -2 1 5
10 10 13 8 20 -8 39 -11 13 -20 19 -20 13 0 -22 -34 -7 -52 24 -11 18 -23 31
-27 28 -4 -2 -8 2 -8 9 0 8 7 12 16 10 9 -3 6 1 -6 7 -13 7 -23 16 -23 21 0
13 -28 9 -34 -4 -4 -9 -5 -8 -5 2 3 43 -1 53 -15 41 -11 -10 -16 -8 -21 8 -3
11 -9 20 -13 18 -10 -3 -57 47 -54 57 2 5 -5 3 -14 -5 -12 -9 -15 -9 -10 -1 4
7 2 12 -4 12 -6 0 -8 5 -4 12 5 7 3 8 -5 3 -7 -4 -20 1 -32 13 -13 15 -27 19
-46 16 -27 -5 -27 -4 -8 10 11 8 17 18 12 22 -4 4 -7 2 -7 -4 0 -7 -5 -12 -11
-12 -5 0 -8 4 -5 9 3 5 -2 8 -12 7 -10 0 -16 6 -16 16 1 10 -2 15 -7 12 -8 -5
-13 10 -10 29 1 5 -3 6 -9 2 -6 -3 -8 -10 -6 -14 3 -4 -1 -8 -9 -8 -8 0 -12 8
-10 20 3 14 1 16 -9 8 -7 -6 -16 -7 -20 -3 -4 4 -13 7 -18 7 -6 0 -13 7 -15
15 -4 13 -3 13 7 0 10 -13 11 -13 7 0 -2 8 -9 16 -15 16 -7 1 -15 3 -19 4 -5
1 -11 2 -15 1 -5 0 -8 3 -8 9 0 5 -5 10 -11 10 -5 0 -7 -4 -4 -10 3 -5 2 -10
-3 -10 -5 0 -14 10 -21 23 l-11 22 6 -22 c3 -13 1 -23 -5 -23 -6 0 -10 3 -10
8 4 24 -4 32 -31 32 -24 0 -30 4 -30 22 0 21 0 21 -15 2 -13 -18 -14 -18 -9 6
2 14 2 19 -2 13 -4 -10 -9 -9 -21 2 -8 8 -20 15 -26 15 -7 0 -3 -7 7 -15 11
-8 15 -15 9 -15 -16 0 -44 36 -46 58 0 11 -4 19 -8 16 -4 -2 -10 0 -13 4 -3 5
-17 8 -31 7 -16 -2 -25 2 -25 11 0 8 -7 14 -15 14 -8 0 -15 -5 -15 -11 0 -5
-5 -7 -11 -4 -6 5 -4 11 7 19 16 12 16 13 0 19 -10 4 -15 3 -11 -3 3 -6 -1
-10 -9 -10 -8 0 -17 4 -21 9 -3 6 -14 8 -25 6 -11 -2 -19 1 -17 8 1 7 -4 11
-12 9 -12 -3 -12 0 -1 13 7 8 10 18 6 22 -3 3 -6 1 -6 -5 0 -7 -5 -12 -11 -12
-5 0 -8 4 -5 9 3 4 -5 13 -18 19 -17 8 -23 7 -23 -3 0 -7 6 -11 14 -8 7 3 13
1 13 -4 0 -5 -9 -9 -20 -10 -14 -1 -20 4 -20 18 0 15 -5 18 -23 15 -13 -2 -30
0 -38 5 -8 5 -10 9 -6 9 5 0 5 5 2 10 -5 8 -11 7 -21 -1 -11 -9 -14 -8 -14 5
0 9 -7 16 -16 16 -8 0 -13 -4 -10 -9 8 -13 -43 -6 -56 7 -9 9 -16 8 -27 -1
-11 -9 -13 -9 -8 0 5 7 -1 16 -12 23 -18 9 -20 8 -15 -7 3 -10 -2 -7 -10 7
-15 24 -17 24 -20 -2 0 -6 -8 -13 -16 -15 -13 -4 -13 -3 0 6 8 6 12 11 8 11
-3 0 -14 3 -23 6 -9 4 -15 3 -13 -2 4 -12 -8 -15 -27 -8 -8 3 -12 10 -9 15 3
5 -2 6 -10 3 -9 -3 -12 -13 -9 -22 4 -13 2 -12 -10 3 -13 16 -17 17 -18 5 -1
-8 -1 -19 1 -25 1 -5 -7 -2 -17 6 -10 9 -24 14 -30 12 -7 -3 -13 0 -13 7 0 6
5 8 10 5 6 -3 10 -1 10 4 0 12 -35 9 -47 -4 -5 -4 -2 -5 6 0 9 5 12 4 8 -3 -4
-5 -15 -9 -25 -7 -9 2 -23 4 -29 4 -7 1 -13 11 -13 24 0 18 -2 19 -10 7 -5 -8
-10 -10 -10 -4 0 7 -7 14 -14 17 -11 4 -13 1 -9 -10 4 -10 2 -14 -4 -10 -16
10 -64 16 -58 8 2 -5 -3 -15 -13 -22 -15 -13 -16 -12 -4 3 10 12 10 18 1 23
-6 4 -15 2 -19 -5 -5 -8 -11 -1 -18 19 -6 17 -13 31 -16 31 -3 0 -2 -8 1 -17
6 -16 5 -17 -12 -3 -17 14 -18 13 -12 -2 4 -12 2 -15 -8 -11 -8 3 -13 9 -10
13 3 5 1 11 -4 14 -5 4 -13 1 -17 -5 -5 -8 -3 -9 6 -4 8 5 11 4 7 -3 -11 -17
-49 -2 -43 17 5 13 4 13 -7 -1 -8 -10 -17 -15 -20 -11 -4 3 -7 1 -7 -6 0 -7 7
-11 15 -8 8 4 17 3 19 -2 7 -11 -27 -10 -41 1 -7 6 -10 15 -6 21 3 6 1 7 -6 3
-6 -4 -9 -11 -6 -16 3 -5 1 -11 -5 -15 -5 -3 -10 2 -11 12 0 10 -3 13 -6 6 -3
-10 -10 -10 -25 -2 -13 7 -18 7 -14 1 8 -13 -12 -20 -40 -14 -16 3 -21 9 -16
20 5 14 4 15 -10 2 -8 -8 -13 -21 -11 -28 4 -10 -1 -10 -23 -2 -27 9 -28 9
-10 -5 22 -16 10 -21 -14 -5 -11 7 -17 5 -22 -8 -6 -16 -7 -16 -7 1 -1 20 -21
23 -21 3 0 -8 -5 -18 -12 -22 -8 -5 -9 -2 -5 9 3 9 2 19 -4 22 -5 4 -8 1 -7
-7 2 -8 -6 -13 -18 -12 -17 1 -21 -4 -18 -20 3 -12 2 -15 -2 -8 -9 19 -27 14
-20 -5 6 -17 5 -17 -8 0 -13 16 -14 16 -19 -4 -3 -11 -10 -18 -16 -15 -5 4
-15 -2 -21 -11 -11 -17 -11 -17 -6 0 3 9 1 17 -4 17 -6 0 -10 -8 -11 -17 0
-10 -3 -13 -6 -6 -3 10 -7 10 -18 0 -7 -7 -10 -16 -7 -22 2 -5 -1 -4 -9 3 -7
6 -18 12 -23 12 -6 0 -4 -5 4 -10 13 -8 13 -11 1 -22 -8 -7 -11 -8 -8 -2 3 6
0 11 -7 11 -8 0 -13 -9 -11 -22 1 -12 -4 -22 -11 -22 -7 0 -10 5 -7 11 4 6 -1
5 -9 -2 -10 -8 -14 -20 -11 -29 4 -10 2 -14 -5 -9 -6 3 -13 2 -16 -3 -4 -5 -1
-13 5 -17 8 -5 9 -3 4 6 -5 9 -4 11 4 6 6 -4 9 -12 5 -17 -3 -5 -10 -7 -15 -4
-5 4 -9 -1 -9 -9 0 -9 -5 -16 -11 -16 -5 0 -7 6 -3 13 6 8 3 8 -9 -1 -11 -9
-37 -13 -82 -10 -36 1 -65 0 -65 -4 0 -8 -21 -5 -37 5 -7 5 -13 4 -13 -1 0 -5
-6 -9 -12 -9 -30 -1 -175 -14 -193 -18 -11 -2 -42 -7 -70 -10 -293 -34 -650
-121 -984 -241 -69 -25 -140 -52 -158 -60 -17 -8 -34 -14 -37 -14 -21 0 -412
-191 -531 -260 -949 -545 -1682 -1397 -2078 -2415 -103 -264 -218 -690 -252
-935 -2 -14 -6 -38 -9 -55 -5 -32 -11 -75 -21 -165 -4 -30 -8 -66 -10 -80 -16
-108 -23 -642 -11 -775 3 -33 8 -94 11 -135 6 -75 42 -342 50 -370 2 -8 6 -33
10 -55 3 -22 22 -110 41 -195 97 -418 268 -863 469 -1218 20 -35 30 -60 24
-56 -8 5 -10 2 -7 -7 4 -10 -3 -15 -23 -15 -25 -2 -33 5 -31 27 1 3 -5 6 -12
6 -7 0 -13 -6 -13 -13 0 -7 4 -11 9 -8 15 9 8 -3 -9 -17 -10 -9 -14 -9 -10 -2
9 15 -19 30 -53 28 -14 -1 -30 3 -37 7 -7 6 -14 4 -19 -3 -4 -7 -3 -9 3 -6 6
4 13 1 16 -6 6 -15 -27 -17 -40 -2 -5 4 -2 5 4 1 9 -5 11 -2 7 9 -6 14 -8 14
-21 -2 -8 -10 -12 -13 -9 -7 3 6 -1 11 -9 11 -11 0 -12 -5 -3 -20 8 -15 7 -18
-3 -12 -7 5 -18 1 -27 -11 -12 -15 -14 -16 -9 -2 4 12 1 16 -13 15 -10 -1 -16
-5 -14 -9 3 -4 0 -16 -6 -25 -11 -17 -11 -17 -6 0 7 22 -10 22 -24 0 -11 -17
-11 -17 -6 -1 3 10 1 20 -5 23 -5 4 -9 3 -8 -2 1 -4 1 -15 0 -22 -1 -12 -4
-12 -13 -3 -15 15 -28 15 -28 1 0 -5 5 -7 12 -3 7 4 8 3 4 -5 -4 -6 -11 -9
-16 -6 -5 3 -12 1 -15 -5 -5 -8 -11 -7 -21 1 -12 10 -13 8 -8 -7 6 -17 4 -16
-14 3 -30 30 -168 317 -237 493 -133 335 -238 698 -290 1000 -8 48 -15 85 -20
109 -4 22 -9 59 -21 158 -3 27 -7 58 -9 70 -2 12 -6 55 -10 95 -3 40 -10 114
-14 163 -8 89 -6 667 2 735 3 19 8 73 11 120 4 47 9 92 11 100 2 8 7 42 10 75
13 133 72 433 122 625 230 882 688 1688 1325 2332 207 208 352 338 558 495
322 246 693 465 1055 623 66 28 134 58 152 66 17 8 37 14 45 14 8 0 18 4 24 9
35 33 630 214 779 237 22 3 43 8 46 9 5 4 211 40 279 49 19 3 51 7 71 10 20 3
62 8 95 11 32 4 69 8 80 10 12 2 77 6 145 10 68 4 126 9 128 11 5 5 569 -4
641 -10z m297 -242 c-3 -3 -12 -4 -19 -1 -8 3 -5 6 6 6 11 1 17 -2 13 -5z
m-529 -29 c-3 -3 -9 2 -12 12 -6 14 -5 15 5 6 7 -7 10 -15 7 -18z m1392 -190
c11 -13 10 -14 -4 -9 -9 3 -16 10 -16 15 0 13 6 11 20 -6z m269 -163 c-1 -15
-2 -15 -6 1 -2 9 -9 14 -15 11 -7 -4 -8 -2 -4 5 10 15 26 4 25 -17z m106 -70
c-3 -3 -11 0 -18 7 -9 10 -8 11 6 5 10 -3 15 -9 12 -12z m100 -52 c3 -5 1 -10
-4 -10 -6 0 -11 5 -11 10 0 6 2 10 4 10 3 0 8 -4 11 -10z m40 -40 c3 -5 1 -10
-4 -10 -6 0 -11 5 -11 10 0 6 2 10 4 10 3 0 8 -4 11 -10z m-3305 -62 c-14 -6
-28 -12 -32 -12 -4 -1 -14 -10 -23 -21 -9 -11 -13 -14 -9 -6 4 9 2 12 -7 9 -8
-3 -13 -10 -12 -15 1 -6 -9 -9 -22 -7 -17 1 -25 -3 -25 -12 0 -9 -4 -13 -9 -9
-5 3 -12 1 -16 -5 -4 -6 -10 -8 -14 -5 -5 2 -7 -7 -5 -20 2 -22 0 -24 -19 -13
-20 10 -21 10 -8 -6 12 -14 12 -16 -4 -9 -15 5 -17 3 -12 -10 5 -14 3 -16 -12
-8 -20 11 -41 -3 -41 -28 0 -13 -2 -13 -9 -3 -6 10 -10 8 -14 -8 -4 -14 -11
-21 -20 -17 -7 3 -14 -1 -14 -9 0 -7 4 -11 8 -8 4 2 10 0 14 -5 3 -6 -4 -8
-16 -6 -13 3 -26 10 -31 17 -4 7 -8 8 -8 3 0 -6 5 -16 12 -23 9 -9 9 -12 -1
-12 -7 0 -9 -5 -5 -12 6 -10 4 -10 -8 0 -19 15 -31 2 -22 -25 3 -10 2 -14 -3
-8 -4 6 -17 11 -28 13 l-20 4 20 -16 c16 -13 17 -15 3 -10 -13 4 -18 1 -18
-11 0 -9 -5 -13 -10 -10 -6 4 -7 12 -3 18 4 7 0 6 -10 -2 -18 -14 -23 -26 -8
-16 6 3 9 -3 8 -14 -1 -16 -4 -18 -16 -8 -12 10 -13 9 -7 -2 7 -10 3 -12 -15
-6 -24 7 -24 7 -4 -9 14 -11 15 -15 5 -14 -8 2 -14 -2 -13 -9 1 -6 -8 -10 -22
-8 -20 2 -23 -1 -15 -11 9 -10 6 -11 -9 -7 -13 3 -21 1 -21 -6 0 -7 5 -9 12
-5 7 4 8 3 4 -5 -4 -6 -12 -8 -18 -5 -7 5 -9 1 -5 -9 7 -19 -8 -32 -19 -16 -5
8 -3 9 6 4 9 -5 11 -4 6 4 -4 6 -12 9 -17 5 -5 -3 -7 -9 -4 -14 3 -4 0 -10 -7
-12 -15 -5 -20 -38 -5 -38 5 0 8 -3 5 -6 -4 -3 -15 -1 -25 5 -18 9 -19 6 -18
-24 0 -18 -3 -31 -7 -29 -4 2 -17 -6 -29 -18 -12 -13 -18 -16 -14 -8 8 13 7
13 -8 1 -9 -7 -17 -20 -17 -28 0 -8 -4 -12 -9 -9 -5 3 -11 -4 -14 -15 -3 -12
-9 -19 -14 -17 -4 3 -16 -3 -25 -14 -19 -19 -10 -26 8 -8 7 7 11 6 11 -4 0 -8
-5 -14 -11 -13 -6 1 -10 -6 -10 -16 2 -15 -1 -16 -14 -5 -14 11 -15 10 -8 -6
7 -20 7 -20 -15 0 l-22 19 18 -28 c17 -26 17 -27 0 -20 -14 5 -16 3 -10 -7 6
-10 4 -12 -8 -7 -11 4 -14 2 -10 -9 3 -9 -1 -14 -13 -14 -17 0 -17 -1 1 -14
18 -13 18 -14 -5 -12 -19 1 -24 -3 -22 -17 2 -9 -1 -16 -5 -15 -4 2 -10 -1
-11 -7 -2 -5 -9 -17 -15 -25 -10 -13 -10 -13 5 -1 10 7 15 18 11 24 -3 6 -1 7
5 3 13 -8 -5 -46 -21 -46 -4 0 -5 -5 -1 -12 5 -8 2 -9 -11 -4 -16 6 -16 4 -4
-11 12 -15 12 -16 -3 -10 -10 3 -18 2 -18 -3 0 -6 6 -10 13 -10 8 0 7 -3 -3
-9 -8 -6 -17 -8 -21 -5 -5 2 -6 -5 -4 -17 4 -18 2 -19 -13 -8 -9 7 -14 9 -9 4
4 -4 0 -19 -8 -31 -15 -24 -5 -41 17 -28 7 5 8 3 4 -5 -5 -7 -15 -10 -23 -7
-11 5 -14 -1 -11 -22 2 -16 -2 -26 -9 -25 -6 1 -14 -4 -17 -12 -3 -10 0 -12
12 -9 14 5 15 4 2 -5 -8 -6 -23 -8 -34 -5 -12 4 -16 2 -12 -5 4 -6 14 -11 23
-11 16 0 9 -14 -8 -16 -5 -1 -12 -2 -16 -3 -4 0 2 -8 13 -16 19 -15 19 -15 -1
-8 -18 6 -18 5 -6 -10 14 -18 2 -24 -15 -7 -7 7 -10 2 -10 -15 0 -19 3 -22 13
-13 8 6 16 8 20 4 3 -3 1 -6 -6 -6 -8 0 -11 -8 -8 -19 3 -12 0 -18 -7 -15 -7
3 -12 -5 -13 -18 -2 -18 0 -20 7 -8 9 13 10 13 11 0 1 -8 1 -21 0 -27 -1 -8 5
-10 16 -6 16 5 16 4 -1 -9 -18 -14 -18 -15 3 -30 16 -11 19 -17 9 -21 -8 -4
-9 -8 -3 -14 6 -4 11 -14 13 -22 3 -12 0 -12 -13 -1 -13 11 -15 10 -9 -4 3 -9
10 -16 14 -16 4 0 10 -12 13 -27 5 -26 4 -26 -9 -8 -15 20 -18 17 -8 -9 3 -9
14 -16 23 -16 14 0 14 -2 1 -10 -8 -5 -10 -10 -4 -10 14 0 13 -52 -1 -63 -6
-5 -3 -7 8 -3 18 6 19 1 20 -76 0 -28 4 -38 16 -38 14 0 14 -2 1 -10 -10 -6
-11 -10 -3 -10 7 0 12 -10 11 -22 0 -13 0 -27 2 -33 5 -20 0 -56 -8 -51 -4 2
-8 -6 -8 -20 0 -19 4 -23 21 -19 11 3 14 2 8 -1 -7 -3 -13 -12 -13 -20 0 -9 4
-13 8 -10 11 6 9 -25 -3 -43 -6 -10 -4 -12 5 -6 9 6 10 2 5 -15 -5 -17 -4 -21
5 -15 9 6 11 4 5 -5 -5 -8 -10 -29 -11 -47 -2 -26 2 -33 17 -33 16 0 17 -4 9
-26 -7 -17 -7 -23 0 -19 7 4 9 -2 6 -17 -2 -13 2 -32 10 -43 8 -10 14 -14 14
-9 0 6 -5 15 -12 22 -8 8 -8 12 -1 12 11 0 23 -22 23 -41 0 -5 -8 -10 -17 -10
-17 -1 -17 -2 0 -6 9 -2 17 -11 17 -19 0 -10 -5 -12 -12 -8 -9 6 -9 3 0 -9 12
-14 11 -16 -7 -12 -12 2 -19 0 -16 -6 4 -5 14 -9 23 -10 11 -1 8 -4 -8 -9 -14
-4 -19 -8 -12 -9 17 -1 15 -18 -4 -25 -10 -4 -13 -2 -8 7 4 6 4 9 -1 5 -4 -4
-15 -2 -23 5 -11 8 -14 8 -9 0 4 -6 3 -14 -3 -18 -6 -4 -8 -10 -5 -15 3 -5 0
-12 -7 -16 -7 -4 -10 -4 -6 1 10 10 -10 45 -25 44 -9 0 -9 -2 1 -6 23 -9 12
-22 -17 -18 -23 2 -28 0 -24 -11 3 -9 -1 -14 -12 -14 -10 0 -13 5 -9 12 4 6 3
8 -4 5 -11 -8 -11 -25 2 -45 7 -11 4 -12 -11 -3 -23 12 -34 6 -26 -15 3 -8 -1
-21 -8 -30 -10 -13 -10 -17 2 -25 8 -5 9 -9 3 -9 -7 0 -15 -7 -18 -16 -5 -14
-4 -15 9 -4 8 7 15 8 15 2 0 -15 -26 -33 -35 -24 -5 4 -5 2 -1 -5 4 -7 14 -9
23 -6 11 4 9 -1 -6 -16 -19 -19 -20 -25 -9 -38 11 -14 10 -15 -12 -9 -21 6
-22 5 -7 -4 9 -6 17 -16 17 -21 0 -6 -4 -8 -8 -5 -4 2 -8 -4 -8 -14 0 -10 5
-16 10 -13 5 4 6 -1 2 -12 -4 -11 -2 -22 6 -27 10 -6 10 -8 1 -8 -7 0 -13 -7
-13 -15 0 -8 6 -15 13 -15 8 0 7 -4 -3 -10 -12 -8 -13 -13 -2 -30 14 -22 4
-27 -18 -7 -9 7 -8 4 1 -8 9 -11 14 -26 12 -32 -3 -7 1 -13 8 -13 7 0 5 -6 -7
-15 -16 -13 -16 -14 -1 -9 13 5 16 2 11 -10 -3 -9 -9 -14 -13 -11 -4 2 -8 -2
-8 -10 0 -8 5 -11 10 -8 6 4 8 -1 4 -11 -4 -10 -7 -22 -7 -27 0 -6 -5 -7 -11
-3 -6 3 -3 -6 7 -22 11 -15 14 -25 7 -21 -6 4 -14 3 -18 -3 -3 -5 2 -10 11
-10 16 0 16 -1 -2 -16 -17 -14 -17 -15 -1 -10 11 3 16 2 12 -4 -3 -6 0 -10 7
-10 7 -1 2 -7 -11 -14 -20 -11 -21 -14 -7 -19 12 -5 15 -3 10 6 -4 6 -3 8 1 4
12 -10 15 -38 4 -31 -5 3 -9 1 -9 -5 0 -5 5 -13 10 -16 6 -3 10 -12 10 -18 0
-7 -4 -6 -10 3 -8 12 -10 11 -10 -7 0 -12 6 -24 13 -26 6 -3 3 -6 -8 -6 -16
-1 -17 -3 -5 -10 8 -6 19 -7 25 -3 5 3 4 -2 -4 -11 -7 -9 -17 -15 -20 -12 -4
2 -8 -2 -8 -10 0 -8 5 -12 10 -8 5 3 6 -3 2 -16 -4 -14 -2 -21 7 -21 8 0 9 -3
3 -8 -6 -4 -12 -17 -12 -30 -2 -21 0 -22 15 -10 14 10 13 8 -1 -9 -13 -14 -17
-29 -12 -44 5 -14 4 -19 -4 -15 -7 5 -9 1 -5 -8 3 -9 9 -14 13 -11 4 2 8 -2 8
-10 0 -8 -4 -12 -9 -9 -10 6 -11 -10 -1 -20 11 -10 12 -37 2 -30 -5 3 -6 10
-3 16 4 7 2 8 -4 4 -9 -5 -9 -13 -2 -26 13 -25 20 -81 9 -74 -5 3 -9 0 -9 -5
0 -6 6 -11 13 -11 9 0 9 -2 -1 -9 -11 -7 -11 -9 2 -14 11 -5 15 -15 12 -31 -3
-16 3 -36 17 -53 15 -19 16 -24 4 -14 -15 12 -17 12 -11 -2 3 -8 12 -18 20
-21 8 -3 11 -12 7 -22 -5 -13 -3 -15 8 -9 12 8 12 6 0 -8 -9 -12 -10 -17 -2
-17 7 0 10 -4 6 -9 -3 -5 3 -17 12 -27 13 -12 14 -19 5 -22 -13 -4 -17 -23 -4
-21 4 1 14 1 22 0 13 -1 13 -2 0 -11 -11 -7 -11 -10 -2 -10 7 0 11 -4 8 -9 -8
-12 29 -52 40 -43 4 4 2 -1 -5 -10 -9 -12 -10 -18 -2 -18 6 0 11 -7 11 -15 0
-8 6 -15 13 -15 8 0 7 -4 -3 -10 -9 -6 -11 -10 -3 -10 7 0 11 -6 9 -12 -1 -7
-1 -10 1 -5 9 15 22 6 18 -12 -2 -11 4 -26 13 -33 12 -10 14 -10 8 0 -4 6 -2
12 3 12 17 0 13 -18 -6 -29 -16 -9 -16 -10 3 -11 12 0 28 -8 35 -17 8 -10 9
-14 2 -10 -8 5 -11 1 -10 -12 1 -15 4 -17 14 -9 11 8 12 7 7 -7 -5 -13 -4 -16
4 -11 7 4 12 2 12 -4 0 -6 4 -8 10 -5 6 3 7 -1 4 -9 -7 -19 7 -21 24 -4 8 8
12 8 12 1 0 -6 -7 -14 -16 -17 -8 -3 -12 -11 -9 -16 5 -8 11 -7 21 1 8 6 17 9
21 5 3 -3 1 -6 -6 -6 -7 0 -9 -5 -6 -10 4 -6 11 -8 16 -4 5 3 9 2 8 -3 -4 -21
2 -43 12 -43 5 0 7 5 3 12 -4 7 -3 8 5 4 9 -6 9 -11 0 -22 -10 -12 -10 -14 0
-12 8 2 15 -6 17 -17 1 -11 8 -21 14 -23 7 -3 4 -10 -7 -18 -17 -13 -17 -14 2
-7 18 6 19 5 5 -12 -14 -17 -13 -18 5 -12 20 7 20 7 0 -8 -17 -14 -18 -17 -5
-25 13 -9 13 -10 0 -10 -9 0 -11 -3 -5 -8 6 -4 11 -13 13 -21 3 -12 0 -12 -13
-1 -13 11 -15 10 -9 -6 4 -10 14 -28 23 -39 15 -18 15 -19 -1 -6 -20 15 -25 2
-6 -17 7 -7 8 -12 4 -12 -5 0 -2 -7 5 -17 13 -15 12 -15 -11 -3 -25 13 -25 13
-6 -8 10 -12 16 -28 13 -36 -4 -11 -1 -13 11 -9 15 6 15 5 3 -10 -11 -14 -11
-17 0 -17 9 0 7 -5 -5 -12 -19 -10 -19 -11 -1 -24 15 -11 16 -16 5 -29 -10
-12 -10 -15 1 -15 11 0 11 -2 -1 -10 -8 -5 -11 -10 -6 -10 5 0 3 -6 -3 -14 -9
-10 -9 -16 -1 -21 6 -4 8 -15 5 -26 -4 -10 -2 -19 3 -19 5 0 9 -6 10 -12 0 -7
3 -23 6 -36 3 -13 1 -20 -5 -17 -5 4 -9 1 -9 -4 0 -6 8 -11 18 -11 14 0 15 -2
2 -10 -12 -8 -12 -10 5 -11 l20 0 -20 -9 c-12 -5 -14 -9 -6 -9 11 -1 10 -4 -4
-14 -14 -11 -15 -16 -5 -22 9 -6 11 -4 5 6 -5 8 -4 11 0 7 5 -5 9 -24 11 -45
1 -22 -1 -31 -6 -23 -6 10 -7 -38 -1 -69 1 -2 7 2 15 8 11 9 16 9 22 0 4 -7 3
-9 -3 -6 -6 4 -13 -4 -15 -18 -4 -18 -1 -25 11 -25 13 0 14 -2 2 -9 -8 -5 -15
-19 -16 -30 -1 -17 1 -19 13 -8 13 10 14 9 4 -10 -10 -19 -9 -24 10 -39 13 -9
16 -14 7 -11 -13 4 -15 1 -12 -14 3 -10 13 -19 22 -19 13 0 14 -2 1 -9 -8 -6
-17 -8 -20 -6 -4 2 -7 -3 -7 -11 0 -10 4 -11 11 -4 14 14 23 13 29 -5 4 -8 1
-17 -5 -21 -7 -4 -8 -3 -4 4 4 7 2 12 -3 12 -13 0 -14 -13 -3 -24 4 -4 8 -12
8 -17 1 -5 2 -13 3 -19 0 -5 9 -7 19 -3 14 5 14 3 -3 -10 -17 -13 -18 -17 -5
-33 8 -10 10 -15 4 -11 -7 4 -14 0 -18 -8 -3 -9 -12 -12 -23 -9 -15 5 -15 4
-3 -4 8 -6 17 -9 21 -6 4 2 10 0 13 -5 4 -5 -5 -8 -18 -7 -20 3 -24 -1 -21
-18 4 -21 4 -21 -12 -1 -15 20 -15 20 -11 -1 3 -13 0 -21 -8 -21 -8 0 -14 4
-14 8 0 11 -29 4 -43 -11 -6 -7 -7 -10 -1 -7 6 3 11 0 11 -7 0 -13 -24 -15
-44 -3 -15 9 -27 -9 -19 -30 5 -12 3 -13 -6 -6 -9 7 -23 3 -46 -13 -20 -13
-27 -24 -20 -27 10 -3 10 -7 -1 -18 -8 -9 -11 -9 -7 -2 5 9 2 11 -10 6 -11 -4
-13 -8 -6 -11 7 -2 12 -8 12 -14 0 -6 -7 -8 -15 -4 -10 3 -17 -3 -21 -19 -4
-15 -11 -22 -18 -18 -8 5 -8 3 0 -8 8 -10 7 -21 -2 -39 -9 -15 -14 -19 -15
-10 0 11 -2 12 -6 2 -3 -7 -16 -25 -29 -39 -20 -21 -22 -29 -12 -41 12 -13 10
-14 -12 -2 l-25 13 20 -23 c11 -13 14 -20 6 -15 -11 6 -13 4 -8 -7 4 -12 0
-15 -16 -11 -18 4 -19 3 -7 -6 13 -10 13 -12 1 -20 -12 -7 -12 -13 -3 -24 10
-12 8 -13 -13 -9 -16 3 -25 0 -25 -9 0 -7 -3 -9 -7 -6 -10 10 -32 -13 -27 -28
3 -7 0 -16 -7 -21 -8 -4 -10 -3 -5 4 4 7 2 12 -5 12 -6 0 -9 -8 -6 -20 3 -10
2 -19 -2 -18 -25 3 -33 -3 -22 -16 10 -12 8 -13 -8 -9 -12 3 -18 10 -14 16 3
6 1 7 -6 3 -9 -6 -9 -11 1 -24 10 -12 10 -14 1 -8 -8 4 -13 2 -13 -4 0 -6 -4
-8 -10 -5 -9 6 -14 -8 -11 -27 0 -5 -4 -8 -10 -8 -6 0 -8 9 -4 23 6 21 5 21
-6 2 -24 -39 -33 -43 -46 -26 -11 13 -12 11 -3 -11 8 -23 7 -28 -6 -28 -9 0
-12 5 -8 12 4 8 3 10 -2 5 -9 -9 -10 -13 -13 -44 -1 -16 -3 -16 -11 -3 -8 12
-10 12 -10 1 0 -7 -10 -23 -23 -35 -12 -11 -24 -25 -25 -31 -2 -11 -22 -14
-37 -6 -6 3 -2 -3 10 -13 16 -16 17 -18 2 -13 -9 4 -17 2 -17 -3 0 -6 -5 -10
-11 -10 -5 0 -7 5 -3 12 4 7 3 8 -5 4 -6 -4 -9 -11 -6 -16 3 -4 -2 -10 -10
-14 -8 -3 -15 -11 -15 -17 0 -8 5 -7 17 2 15 13 15 12 2 -8 -7 -12 -16 -19
-19 -15 -4 7 -16 8 -35 3 -3 0 0 -11 6 -23 12 -22 11 -22 -6 -8 -17 14 -18 13
-12 -2 3 -10 2 -18 -3 -18 -6 0 -10 6 -10 13 0 8 -3 8 -9 -2 -5 -8 -19 -12
-35 -9 -21 4 -24 3 -16 -13 10 -18 -3 -21 -27 -6 -15 9 -16 6 -7 -17 3 -9 11
-13 17 -9 6 4 7 1 2 -7 -6 -10 -11 -9 -22 6 -12 17 -63 29 -61 15 2 -24 -4
-32 -22 -26 -13 4 -20 2 -18 -5 2 -7 -3 -15 -11 -18 -8 -3 -11 0 -7 7 5 7 1 9
-8 5 -9 -3 -13 -11 -9 -18 3 -6 -4 -2 -17 9 -13 11 -20 14 -15 6 6 -11 4 -13
-8 -8 -18 7 -19 -13 -2 -25 6 -5 5 -8 -3 -8 -7 0 -15 7 -18 15 -4 8 -10 15
-15 15 -6 0 -5 -9 1 -20 13 -25 2 -26 -17 -2 -8 9 -12 12 -9 5 4 -6 2 -14 -4
-18 -5 -3 -10 -1 -10 6 0 7 -3 9 -7 6 -3 -4 -12 -2 -20 5 -11 9 -12 7 -6 -8 6
-17 5 -18 -12 -4 -11 9 -16 10 -11 3 4 -7 2 -13 -3 -13 -6 0 -11 4 -11 9 0 14
-29 21 -36 9 -4 -6 -3 -8 4 -4 6 3 14 2 17 -4 4 -6 3 -9 -2 -8 -4 1 -19 -3
-33 -10 -22 -12 -23 -12 -7 1 11 9 14 18 8 21 -5 4 -12 2 -16 -4 -4 -6 -10 -8
-15 -5 -16 10 -81 12 -86 3 -3 -5 -14 -6 -24 -3 -10 3 -21 1 -25 -4 -3 -7 0
-8 9 -5 9 3 16 1 16 -5 0 -6 -12 -11 -26 -11 -16 0 -23 4 -18 12 4 7 3 8 -5 4
-6 -4 -8 -12 -5 -18 4 -7 2 -8 -5 -4 -7 4 -20 4 -29 0 -9 -4 -19 -8 -22 -8 -3
-1 -14 -7 -25 -13 -14 -9 -16 -13 -5 -13 13 0 13 -1 0 -10 -20 -13 -33 -12
-24 2 4 7 3 8 -4 4 -7 -4 -12 -14 -12 -22 0 -8 -5 -14 -11 -14 -5 0 -7 5 -3
12 4 7 3 8 -4 4 -7 -4 -12 -13 -12 -21 0 -19 -17 -28 -26 -14 -4 7 -3 9 3 6 5
-3 10 0 10 8 0 11 -4 12 -13 4 -7 -6 -10 -18 -7 -26 4 -11 2 -14 -5 -9 -19 12
-53 16 -47 5 4 -5 10 -7 15 -4 5 3 12 0 16 -6 4 -7 3 -9 -3 -6 -13 8 -35 -17
-25 -29 4 -4 -1 -2 -11 5 -9 8 -20 11 -24 8 -3 -4 -12 -2 -19 4 -16 13 -37 2
-30 -17 3 -7 1 -16 -5 -19 -5 -4 -8 -3 -7 2 3 8 -5 13 -23 13 -5 0 -8 -4 -5
-9 7 -11 -21 -8 -31 4 -4 4 -2 5 6 0 10 -5 12 -4 7 4 -5 7 -13 8 -24 2 -12 -7
-19 -4 -27 9 -5 10 -28 49 -49 87 -276 477 -491 1158 -541 1718 -4 39 -9 81
-12 95 -9 45 -11 602 -2 710 19 247 37 378 79 575 10 50 21 101 24 115 13 64
47 193 71 269 15 46 28 91 30 100 5 28 85 241 137 366 125 300 317 640 507
900 49 66 177 230 201 257 8 9 40 46 70 81 83 98 352 362 465 456 210 175 490
370 700 489 136 76 434 219 563 268 60 23 246 88 264 93 13 3 31 8 78 22 25 8
48 14 52 14 3 0 10 3 14 8 4 4 14 7 23 6 10 0 6 -5 -9 -11z m-120 -94 c0 -8
-19 -13 -24 -6 -3 5 1 9 9 9 8 0 15 -2 15 -3z m-116 -75 c-3 -5 -10 -7 -15 -3
-5 3 -7 10 -3 15 3 5 10 7 15 3 5 -3 7 -10 3 -15z m3846 -14 c11 -13 10 -14
-4 -9 -9 3 -16 10 -16 15 0 13 6 11 20 -6z m-4240 -349 c0 -3 -4 -8 -10 -11
-5 -3 -10 -1 -10 4 0 6 5 11 10 11 6 0 10 -2 10 -4z m4701 -283 c269 -215 529
-479 754 -768 71 -91 305 -435 305 -448 0 -3 20 -40 45 -82 120 -202 254 -504
346 -775 55 -164 133 -447 145 -529 3 -20 9 -52 14 -71 5 -19 11 -55 15 -80 3
-25 8 -56 10 -70 7 -38 13 -80 20 -140 4 -30 9 -66 10 -80 27 -214 27 -798 0
-963 -2 -12 -6 -44 -10 -72 -7 -57 -21 -161 -30 -220 -5 -32 -32 -159 -60
-285 -22 -102 -115 -411 -145 -485 -7 -16 -16 -39 -20 -50 -86 -225 -230 -526
-337 -705 -201 -336 -419 -616 -693 -891 -174 -174 -334 -316 -306 -271 8 13
-11 35 -33 39 -15 2 -19 -1 -15 -15 5 -14 4 -14 -4 -2 -6 8 -8 18 -5 24 4 5
-1 7 -11 3 -9 -4 -15 -3 -11 2 3 6 -3 15 -12 21 -15 9 -14 10 7 4 14 -3 22 -3
18 1 -5 5 -23 10 -40 12 -18 2 -38 4 -45 5 -7 1 -10 5 -7 10 3 5 10 5 16 2 6
-4 8 -2 5 4 -4 5 -18 9 -32 8 -13 -2 -22 1 -19 5 5 8 -10 13 -29 10 -5 -1 -6
3 -2 9 3 6 11 7 17 4 7 -4 8 -2 4 4 -5 9 -13 9 -27 2 -10 -6 -19 -7 -18 -3 4
21 -2 32 -14 27 -8 -3 -19 5 -26 18 -6 13 -9 15 -7 6 3 -10 0 -20 -6 -24 -6
-4 -8 -3 -5 3 4 6 -2 22 -12 34 -18 22 -20 22 -26 6 -7 -16 -26 -25 -24 -9 3
19 -2 33 -11 27 -5 -3 -10 -1 -10 6 0 8 -5 7 -17 -2 -15 -13 -15 -12 -4 10 7
13 8 21 3 17 -6 -3 -13 -2 -17 4 -10 16 -45 32 -45 21 0 -5 9 -13 20 -16 11
-3 20 -14 19 -23 0 -12 -2 -13 -6 -4 -3 7 -16 17 -29 22 -17 7 -22 14 -17 27
5 15 3 15 -10 -2 -11 -14 -15 -15 -14 -5 2 8 6 20 9 26 4 6 1 11 -7 11 -8 0
-13 -3 -11 -6 2 -3 -3 -12 -11 -20 -13 -12 -14 -11 -8 8 5 15 2 21 -9 21 -9 0
-16 6 -17 13 0 9 -2 9 -6 0 -2 -7 -10 -13 -15 -13 -6 0 -8 3 -5 6 4 4 -3 15
-15 25 -25 22 -25 22 -33 9 -4 -6 -1 -9 6 -8 6 2 14 -4 16 -12 4 -12 3 -12 -5
-2 -5 8 -13 14 -18 14 -5 1 -8 11 -6 22 2 19 2 19 -8 4 -6 -10 -16 -18 -22
-18 -7 0 -6 6 2 15 7 9 10 18 6 22 -3 3 -6 2 -6 -4 0 -21 -28 -21 -47 -1 -10
12 -13 18 -6 15 6 -4 15 -2 19 5 4 7 4 10 -1 6 -4 -4 -15 -2 -23 5 -10 8 -13
8 -9 1 4 -7 0 -14 -8 -18 -10 -4 -20 5 -30 27 -11 24 -13 26 -9 7 3 -14 2 -20
-3 -14 -11 14 -48 30 -76 33 -8 0 -19 11 -26 24 -6 12 -9 14 -7 5 3 -10 0 -20
-6 -24 -7 -4 -8 -3 -4 4 4 7 1 12 -8 12 -9 0 -16 6 -16 13 0 8 -4 7 -10 -3 -9
-13 -10 -13 -10 0 0 13 -1 13 -10 0 -5 -8 -10 -10 -10 -4 0 5 5 15 11 21 9 9
7 12 -9 10 -11 0 -18 -6 -15 -12 4 -5 2 -7 -2 -2 -5 4 -16 0 -26 -9 -17 -15
-18 -15 -14 5 2 12 -1 21 -8 21 -7 0 -6 4 3 11 13 9 13 10 0 8 -30 -3 -41 1
-34 13 4 7 3 8 -4 4 -6 -4 -9 -13 -5 -21 3 -8 0 -15 -6 -15 -6 0 -10 3 -10 8
3 19 -2 33 -11 27 -5 -3 -10 -1 -10 4 0 6 -5 11 -11 11 -5 0 -8 -4 -5 -8 3 -5
-1 -9 -9 -9 -8 0 -14 3 -13 6 0 3 0 14 -1 25 -1 15 -4 16 -16 6 -12 -10 -13
-8 -10 10 2 13 2 20 -2 17 -8 -9 -44 12 -38 23 3 5 1 12 -5 15 -6 4 -9 1 -8
-6 2 -6 -3 -14 -10 -16 -8 -3 -10 1 -5 13 5 13 3 15 -8 8 -20 -12 -38 -14 -44
-4 -3 5 3 7 14 5 13 -2 18 1 15 10 -4 10 -13 11 -36 5 -27 -8 -28 -7 -16 7 8
10 8 14 1 10 -6 -4 -14 -3 -18 3 -3 5 -1 10 6 10 7 0 10 2 8 5 -3 2 -20 0 -38
-5 -27 -8 -31 -7 -21 5 8 10 8 15 -1 21 -8 5 -9 3 -4 -6 6 -9 1 -10 -16 -5
-19 5 -21 4 -9 -4 13 -9 13 -11 -2 -11 -19 0 -24 19 -10 36 4 5 -1 1 -10 -9
-18 -19 -18 -19 -18 4 0 22 0 22 -16 3 -8 -10 -13 -13 -9 -6 4 7 0 12 -10 12
-10 0 -13 -5 -9 -12 4 -7 3 -8 -5 -4 -9 6 -9 12 1 24 7 10 8 14 3 9 -4 -4 -18
1 -29 10 -12 10 -15 11 -8 3 18 -21 15 -34 -4 -15 -14 13 -19 14 -25 3 -6 -9
-9 -9 -9 -1 0 6 10 19 21 27 22 15 22 15 1 13 -11 0 -18 -5 -15 -10 3 -5 0 -7
-8 -5 -8 3 -13 11 -11 17 1 7 -2 10 -8 6 -6 -3 -8 -11 -5 -16 4 -5 1 -9 -4 -9
-6 0 -11 6 -11 14 0 13 -23 26 -59 32 -17 3 -32 25 -27 39 2 6 -3 16 -11 24
-13 12 -14 11 -8 -9 5 -15 4 -20 -4 -16 -6 4 -11 14 -11 22 0 8 -5 14 -11 14
-8 0 -8 4 0 14 9 11 9 16 0 22 -7 4 -9 3 -6 -3 4 -6 -1 -17 -10 -24 -14 -12
-16 -12 -8 0 6 11 4 13 -8 8 -9 -3 -16 -3 -16 1 4 22 -2 32 -13 26 -8 -5 -8
-1 2 12 8 10 10 16 6 12 -5 -4 -15 0 -23 10 -8 9 -12 12 -9 5 4 -6 1 -15 -5
-19 -8 -4 -9 -3 -5 4 4 7 3 12 -3 12 -6 0 -8 7 -5 15 4 9 -4 25 -20 40 -14 13
-26 30 -25 37 0 7 5 3 11 -9 12 -25 23 -29 34 -11 4 7 3 8 -4 4 -13 -8 -31 22
-27 47 2 9 0 15 -5 12 -4 -3 -13 2 -20 10 -7 8 -9 15 -5 15 4 0 2 7 -5 15 -7
8 -9 15 -6 15 4 0 2 8 -3 18 -7 13 -6 23 2 32 10 10 9 12 -4 8 -12 -5 -14 0
-11 24 3 22 1 29 -7 24 -8 -5 -8 -1 1 18 6 14 15 26 20 26 5 0 6 5 3 10 -3 6
2 10 12 10 15 0 16 2 3 10 -8 5 -10 10 -4 10 7 0 14 10 17 21 4 16 11 20 26
16 18 -4 19 -2 11 13 -8 16 -7 18 10 15 23 -4 36 10 19 21 -8 4 -9 3 -5 -4 5
-8 2 -10 -8 -6 -13 5 -12 9 7 24 15 12 26 15 34 9 7 -7 14 -6 19 2 4 8 3 9 -4
5 -18 -11 -14 10 4 25 13 10 17 10 25 -2 8 -11 9 -10 7 6 -2 11 2 20 9 20 7 0
18 7 25 15 11 12 11 12 -3 2 -13 -10 -18 -10 -22 1 -3 8 3 14 15 14 26 2 70
43 64 59 -6 15 18 37 29 26 5 -4 5 1 2 11 -6 15 -4 16 13 7 16 -9 18 -7 15 11
-4 18 -2 19 12 7 15 -12 15 -11 3 12 -12 23 -12 24 3 12 14 -12 16 -11 12 8
-2 12 2 23 10 27 8 3 12 10 8 16 -4 6 -1 7 6 3 7 -5 21 0 32 10 15 13 16 20 8
31 -16 18 -3 29 16 13 15 -12 16 -11 19 11 0 6 10 17 20 25 11 8 16 14 11 14
-5 0 -16 -7 -26 -16 -13 -12 -19 -12 -25 -3 -4 8 -3 10 5 5 6 -4 14 0 17 8 3
9 12 16 19 16 8 0 17 4 20 10 4 6 -1 7 -12 3 -14 -4 -15 -3 -7 6 6 7 20 13 31
14 17 1 20 7 19 35 -1 23 4 37 16 43 14 7 16 6 12 -6 -3 -8 -11 -12 -17 -8 -6
4 -7 1 -2 -6 8 -14 25 -2 28 20 2 8 7 21 12 29 7 13 6 13 -7 2 -11 -9 -18 -10
-23 -2 -4 6 -1 9 7 8 7 -2 12 2 11 9 -2 7 4 10 12 7 10 -4 15 0 15 11 0 10 8
24 18 31 16 13 16 14 0 8 -10 -3 -18 -1 -18 5 0 6 10 11 23 12 12 0 17 3 10 5
-16 7 -5 34 14 34 8 0 12 4 8 9 -3 5 2 17 11 25 8 9 11 16 5 16 -6 0 -15 -9
-21 -20 -6 -11 -15 -20 -21 -20 -5 0 -1 10 10 22 11 11 18 25 15 29 -2 4 0 10
6 14 6 4 8 10 5 15 -3 5 0 12 6 16 7 4 9 3 6 -3 -4 -6 -1 -13 7 -16 10 -4 12
0 8 15 -4 16 -2 19 9 13 8 -5 5 2 -5 14 -15 16 -16 20 -4 16 22 -9 31 22 10
35 -16 11 -16 11 1 6 20 -6 22 5 5 23 -11 10 -10 11 3 6 21 -8 36 14 18 26
-13 8 -5 13 14 10 5 -1 6 3 3 8 -4 5 0 12 6 15 7 3 2 4 -12 1 -14 -3 -19 -2
-12 1 6 3 9 11 6 16 -4 7 -2 8 4 4 8 -4 12 0 12 11 0 15 2 16 10 3 5 -8 10
-10 10 -5 0 6 -5 16 -11 22 -8 8 -7 13 2 18 8 6 10 4 4 -5 -5 -9 -4 -11 4 -6
9 6 9 11 -1 23 -11 14 -10 15 12 9 18 -5 21 -4 11 2 -8 6 -15 22 -16 36 0 16
3 22 10 16 7 -6 11 -2 11 10 0 10 -5 16 -11 14 -5 -3 -1 2 9 10 20 16 20 16 0
17 -17 0 -16 1 4 9 20 8 21 13 11 31 -10 19 -9 21 7 15 17 -7 17 -6 0 13 -17
18 -17 19 5 26 17 6 19 9 8 16 -8 5 -9 9 -4 9 6 0 3 5 -5 10 -9 6 -11 10 -3
10 7 0 10 7 7 15 -4 8 -1 15 4 15 6 0 9 -9 7 -20 -2 -11 0 -22 5 -25 5 -3 7 3
5 15 -2 11 1 22 7 26 6 4 5 9 -3 15 -12 7 -12 10 0 21 11 11 13 11 6 -1 -5 -9
-4 -12 3 -8 14 9 3 49 -12 40 -6 -3 -7 -2 -3 3 5 5 13 9 18 9 5 0 9 5 8 10 -1
6 -5 9 -11 7 -5 -1 -7 2 -3 8 3 6 17 8 31 6 14 -3 22 -1 19 5 -4 5 -10 7 -15
4 -4 -3 -13 2 -20 10 -11 13 -10 14 3 10 8 -4 18 -1 23 6 4 7 3 10 -4 6 -6 -5
-6 2 1 18 13 26 27 33 27 13 0 -9 3 -8 9 2 13 19 4 30 -17 23 -13 -4 -13 -2 3
10 11 8 24 13 29 10 5 -4 6 0 1 7 -6 10 -4 12 7 7 12 -4 14 -1 11 14 -3 11 -2
19 3 17 5 -2 10 0 12 5 4 13 47 52 54 50 5 -2 8 7 9 20 0 12 3 16 6 9 2 -6 9
-9 14 -6 6 3 5 12 -3 22 -12 14 -10 14 12 2 23 -12 24 -12 11 3 -11 14 -11 17
-1 17 8 0 10 3 7 7 -10 10 24 44 36 36 6 -4 8 0 4 9 -8 22 13 41 30 26 10 -8
17 -8 24 -1 8 8 7 13 -2 18 -8 5 -10 4 -5 -3 4 -7 2 -12 -3 -12 -16 0 -7 43
10 48 11 3 11 1 -1 -8 -13 -10 -13 -11 0 -7 8 2 14 11 12 20 -5 28 16 57 36
50 15 -6 15 -5 -2 12 -12 12 -15 20 -7 23 6 2 8 9 4 15 -4 6 0 8 9 5 11 -5 14
-1 10 17 -2 12 1 26 7 29 6 4 11 12 11 18 0 6 -7 5 -17 -3 -15 -13 -15 -12 -4
9 6 12 9 28 5 35 -5 6 1 5 11 -3 12 -10 16 -10 11 -2 -4 7 -2 20 6 29 8 10 8
14 1 10 -6 -4 -15 -3 -18 3 -4 6 -1 9 7 8 7 -2 12 5 12 14 -1 10 2 15 7 12 5
-3 10 -2 10 3 6 35 5 52 -2 47 -5 -3 -9 -1 -9 5 0 5 5 13 10 16 6 4 7 12 3 18
-4 7 -8 21 -10 32 -1 11 1 14 3 8 3 -7 13 -13 22 -13 11 0 13 3 6 8 -18 11
-13 44 5 38 9 -3 6 2 -7 11 -22 15 -22 17 -5 36 10 11 13 18 8 14 -6 -3 -12 3
-12 14 -1 15 1 18 10 10 9 -7 13 -5 14 7 9 86 9 93 -6 103 -12 7 -10 8 9 3 23
-6 24 -6 10 11 -8 11 -10 16 -4 12 7 -4 15 0 18 9 3 8 2 12 -4 9 -6 -3 -10 -1
-10 4 0 6 5 11 11 11 6 0 9 6 6 14 -3 8 -1 17 6 20 7 2 4 5 -5 5 -10 1 -18 6
-18 12 0 5 4 8 8 5 5 -3 9 1 9 9 0 8 -3 12 -7 10 -4 -2 -7 2 -7 10 0 8 4 12 7
10 9 -5 23 47 24 87 1 20 4 24 13 16 9 -7 11 -4 8 11 -2 12 0 21 6 21 5 0 8 3
7 8 0 4 2 15 7 25 4 9 5 26 2 38 -5 17 -3 18 9 8 12 -10 15 -10 12 2 -2 8 -7
17 -13 21 -5 4 0 8 13 8 13 0 21 4 17 9 -3 5 -1 12 4 15 5 4 8 17 5 31 -2 13
1 27 7 31 7 4 9 3 6 -3 -3 -5 0 -10 8 -10 11 0 12 5 4 19 -8 15 -7 23 7 32 11
8 14 18 9 26 -5 9 -4 11 3 6 7 -4 12 -2 12 3 0 6 5 11 11 11 5 0 7 -4 4 -10
-10 -16 1 -11 16 7 8 10 9 14 2 10 -6 -4 -14 -3 -18 3 -3 5 -2 10 4 10 6 0 8
7 5 15 -4 10 0 15 12 15 16 0 17 2 4 10 -11 7 -11 10 -2 10 7 0 10 5 7 10 -4
6 -12 7 -18 3 -8 -5 -8 -2 0 9 7 8 10 18 6 22 -4 4 1 4 12 0 18 -7 18 -6 6 9
-7 9 -18 14 -24 10 -6 -3 -7 -1 -3 6 4 6 12 9 17 6 5 -4 5 5 -1 21 -9 23 -8
25 7 20 13 -5 11 0 -7 21 -14 15 -18 22 -10 16 13 -10 19 -6 33 18 9 17 13 28
8 25 -5 -3 -8 5 -7 18 0 14 6 22 13 19 7 -3 10 -10 6 -16 -3 -5 -1 -7 5 -3 6
3 9 21 7 39 -3 23 -2 28 5 17 5 -8 10 -12 11 -7 2 10 6 25 9 35 1 4 2 10 1 15
0 4 3 7 9 7 14 0 13 -13 -2 -28 -8 -8 -8 -12 -1 -12 10 0 25 23 27 42 1 3 5
10 10 15 5 4 6 3 2 -4 -3 -6 -2 -15 4 -18 6 -4 10 -3 9 2 -1 4 -1 16 0 26 1
14 5 16 19 8 14 -7 19 -6 19 4 0 8 -4 12 -8 9 -4 -2 -11 1 -15 7 -4 8 -3 9 4
5 7 -4 12 -2 12 4 0 7 6 8 18 1 14 -7 19 -6 19 4 0 8 -4 12 -8 9 -4 -2 -10 0
-13 5 -7 11 13 9 33 -3 10 -6 12 -5 7 2 -7 11 5 16 31 13 17 -2 25 16 12 25
-7 4 -9 3 -6 -3 4 -6 -4 -10 -18 -10 -25 0 -35 12 -12 15 43 6 55 10 79 31 20
18 25 28 19 40 -6 9 -5 23 2 36 6 11 12 25 13 30 1 6 5 19 9 30 5 14 2 13 -10
-5 -12 -18 -15 -19 -10 -5 4 11 8 25 9 30 3 19 17 35 26 30 4 -3 13 2 19 9 9
11 9 16 0 22 -8 5 -9 3 -4 -6 6 -9 4 -11 -5 -5 -10 6 -5 15 19 37 17 15 26 28
19 29 -10 0 -10 2 0 6 6 2 9 10 5 16 -4 7 2 5 12 -3 17 -14 18 -14 6 8 -11 21
-8 27 14 23 6 -1 2 5 -7 15 -15 15 -15 20 -2 45 10 21 11 30 2 35 -6 4 -8 3
-4 -4 3 -6 2 -13 -3 -16 -5 -4 -8 2 -7 11 2 9 8 19 14 21 7 2 9 8 6 13 -3 6
-12 5 -22 -3 -15 -12 -16 -11 -3 5 10 12 11 20 2 30 -8 10 -7 14 4 14 8 0 12
-4 9 -9 -3 -4 2 -5 11 -1 13 4 14 8 4 14 -20 12 -19 38 2 49 10 6 19 16 19 23
0 8 -4 7 -10 -3 -8 -11 -9 -8 -6 14 3 16 8 31 12 35 4 3 4 -2 1 -11 -4 -10 -2
-18 3 -18 9 0 15 31 11 54 -1 5 11 1 26 -9 25 -16 26 -17 14 -1 -12 14 -12 19
-1 29 9 9 11 9 6 0 -3 -6 -1 -15 5 -19 8 -4 9 -3 5 4 -4 7 -2 12 5 12 8 0 8 4
-1 15 -14 16 0 21 16 5 6 -6 9 4 9 25 0 19 -3 35 -7 35 -4 0 -5 7 -2 15 4 10
1 14 -7 12 -8 -2 -11 -2 -6 0 4 3 4 10 1 15 -4 6 -2 8 4 4 6 -3 14 -1 18 5 4
8 3 9 -4 5 -7 -4 -12 -3 -12 3 0 6 -8 8 -17 5 -15 -5 -15 -4 -4 4 18 13 23 42
8 42 -7 0 -5 5 3 10 10 6 11 10 3 10 -7 0 -13 5 -13 11 0 5 5 7 10 4 15 -9 12
3 -7 24 -9 11 -20 18 -25 15 -15 -9 -8 3 9 17 14 12 16 12 8 0 -5 -10 -4 -12
4 -7 6 4 9 12 5 17 -3 5 -10 7 -15 4 -5 -4 -9 -1 -9 4 0 6 6 11 13 12 9 0 9 2
-1 6 -9 4 -10 8 -2 18 8 10 8 15 -1 21 -8 5 -9 3 -4 -6 5 -8 4 -11 -3 -7 -5 4
-8 16 -5 27 5 20 -20 54 -31 42 -4 -3 -4 1 0 11 6 17 7 17 21 0 13 -16 13 -16
3 5 -6 12 -14 22 -19 22 -4 0 -8 7 -9 15 -1 8 -3 22 -4 30 -1 10 -8 13 -22 9
-17 -4 -18 -3 -6 5 14 10 13 12 -9 15 -5 0 -13 4 -17 8 -3 4 2 6 13 4 11 -3
26 0 34 5 11 8 10 9 -6 7 -14 -2 -19 2 -17 14 2 13 -2 16 -14 11 -14 -5 -15
-3 -5 15 10 18 9 20 -8 17 -16 -3 -19 2 -17 35 1 28 -2 36 -11 29 -8 -7 -10
-2 -9 20 2 26 0 28 -13 18 -12 -10 -13 -9 -1 13 12 22 11 23 -2 13 -12 -11
-14 -8 -10 15 3 22 -2 31 -20 39 l-23 12 25 0 24 1 -22 16 c-17 12 -20 19 -12
34 7 13 7 21 -2 26 -7 4 -8 3 -4 -4 12 -20 0 -13 -20 10 -17 21 -17 21 -1 8
17 -12 18 -12 15 6 -1 10 -9 25 -16 32 -7 8 -10 18 -7 23 4 5 2 9 -2 9 -5 0
-9 10 -10 22 -1 11 -6 24 -11 27 -12 8 -24 44 -13 36 5 -3 13 0 17 6 4 8 3 9
-4 5 -7 -4 -12 -2 -12 4 0 17 -26 40 -35 32 -5 -4 -5 -2 -2 5 4 6 4 13 0 16
-5 2 -3 2 4 1 6 -2 11 6 10 16 -1 14 -5 16 -13 9 -8 -7 -15 -6 -20 2 -4 7 -3
10 2 7 5 -3 15 0 21 7 10 11 9 15 -5 19 -9 3 -22 18 -29 32 -11 23 -10 25 5
20 15 -5 15 -4 2 6 -21 18 -47 53 -33 45 8 -5 11 -1 10 12 0 11 -5 17 -9 15
-12 -8 -9 11 4 24 16 16 -4 16 -22 0 -9 -9 -8 -4 3 13 16 26 15 27 -5 21 -16
-4 -20 -2 -15 10 3 9 0 21 -6 28 -22 23 56 -34 174 -127z m-5090 -756 c-10 -9
-11 -8 -5 6 3 10 9 15 12 12 3 -3 0 -11 -7 -18z m29 -81 c0 -3 -4 -8 -10 -11
-5 -3 -10 -1 -10 4 0 6 5 11 10 11 6 0 10 -2 10 -4z m5324 -384 c3 -5 -1 -9
-9 -9 -8 0 -12 4 -9 9 3 4 7 8 9 8 2 0 6 -4 9 -8z m-5263 -95 c-10 -9 -11 -8
-5 6 3 10 9 15 12 12 3 -3 0 -11 -7 -18z m-41 -187 c0 -5 -5 -10 -11 -10 -5 0
-7 5 -4 10 3 6 8 10 11 10 2 0 4 -4 4 -10z m-179 -233 c-10 -9 -11 -8 -5 6 3
10 9 15 12 12 3 -3 0 -11 -7 -18z m5240 -170 c-8 -8 -14 -7 -23 2 -11 10 -9
11 6 5 15 -6 17 -4 11 6 -6 9 -4 11 4 5 9 -5 10 -10 2 -18z m-308 -312 c-3 -9
-8 -14 -10 -11 -3 3 -2 9 2 15 9 16 15 13 8 -4z m-113 -379 c0 -2 -7 -9 -15
-16 -13 -11 -14 -10 -9 4 5 14 24 23 24 12z m-53 -112 c-3 -3 -12 -4 -19 -1
-8 3 -5 6 6 6 11 1 17 -2 13 -5z m-4367 -734 c0 -5 -5 -10 -11 -10 -5 0 -7 5
-4 10 3 6 8 10 11 10 2 0 4 -4 4 -10z m11 -1217 c13 -16 12 -17 -3 -4 -17 13
-22 21 -14 21 2 0 10 -8 17 -17z m-98 -57 c4 -10 1 -13 -8 -9 -8 3 -18 -2 -21
-11 -3 -9 -10 -13 -15 -10 -5 3 1 14 13 24 28 23 25 23 31 6z m-165 -216 c-7
-11 -16 -20 -20 -20 -5 0 -3 9 4 20 7 11 16 20 20 20 5 0 3 -9 -4 -20z m3737
-121 c-4 -5 -12 -9 -18 -8 -9 0 -8 2 1 6 6 2 9 10 6 15 -4 7 -2 8 5 4 6 -4 9
-12 6 -17z m-3858 -44 c0 -8 -4 -12 -9 -9 -5 3 -6 10 -3 15 9 13 12 11 12 -6z
m3754 -89 c14 8 11 -2 -4 -14 -10 -8 -13 -6 -14 11 0 12 1 16 4 9 3 -6 9 -10
14 -6z m-166 -196 c-10 -11 -23 -20 -28 -20 -6 0 0 9 13 20 13 11 25 20 28 20
3 0 -3 -9 -13 -20z m-4159 -172 c4 -7 3 -8 -4 -4 -7 4 -12 2 -12 -5 0 -7 -3
-10 -6 -6 -6 5 3 27 11 27 2 0 7 -5 11 -12z m-122 -54 c3 -8 2 -12 -4 -9 -6 3
-10 10 -10 16 0 14 7 11 14 -7z m-324 -34 c-8 -5 -19 -10 -25 -10 -5 0 -3 5 5
10 8 5 20 10 25 10 6 0 3 -5 -5 -10z m-100 -35 c0 -2 -9 -3 -19 -2 -11 0 -18
5 -15 9 4 6 34 0 34 -7z m-779 -218 c-10 -9 -11 -8 -5 6 3 10 9 15 12 12 3 -3
0 -11 -7 -18z m5309 -67 c0 -5 -5 -10 -11 -10 -5 0 -7 5 -4 10 3 6 8 10 11 10
2 0 4 -4 4 -10z m660 -410 c0 -5 -5 -10 -11 -10 -5 0 -7 5 -4 10 3 6 8 10 11
10 2 0 4 -4 4 -10z m865 -399 c3 -5 2 -12 -3 -15 -5 -3 -9 1 -9 9 0 17 3 19
12 6z"/>
<path d="M5724 10399 c-4 -7 -3 -9 4 -5 5 3 13 0 15 -6 4 -9 6 -10 6 -1 1 17
-16 25 -25 12z"/>
<path d="M6271 10334 c0 -11 3 -14 6 -6 3 7 2 16 -1 19 -3 4 -6 -2 -5 -13z"/>
<path d="M6477 10333 c3 -7 6 -13 8 -13 2 0 5 6 8 13 3 8 -1 14 -8 14 -7 0
-11 -6 -8 -14z"/>
<path d="M6511 10336 c-9 -11 -9 -16 1 -22 7 -4 10 -4 6 1 -4 4 -3 14 3 22 6
7 9 13 6 13 -2 0 -10 -6 -16 -14z"/>
<path d="M5455 10320 c-4 -6 -12 -7 -18 -4 -7 4 -8 3 -4 -1 13 -15 34 -14 34
1 0 17 -4 18 -12 4z"/>
<path d="M6530 10310 c0 -5 5 -10 11 -10 5 0 7 5 4 10 -3 6 -8 10 -11 10 -2 0
-4 -4 -4 -10z"/>
<path d="M6645 10279 c-3 -4 2 -6 10 -5 21 3 28 13 10 13 -9 0 -18 -4 -20 -8z"/>
<path d="M6781 10223 c-1 -17 16 -25 25 -12 4 7 3 9 -4 5 -5 -3 -13 0 -15 6
-4 9 -6 10 -6 1z"/>
<path d="M7010 10099 c0 -5 5 -7 10 -4 6 3 10 8 10 11 0 2 -4 4 -10 4 -5 0
-10 -5 -10 -11z"/>
<path d="M7551 9764 c0 -11 3 -14 6 -6 3 7 2 16 -1 19 -3 4 -6 -2 -5 -13z"/>
<path d="M7697 9644 c-5 -6 19 -64 26 -64 2 0 3 9 3 19 0 11 -4 17 -8 15 -7
-5 -12 10 -9 29 1 9 -4 9 -12 1z"/>
<path d="M1243 3055 c0 -6 6 -12 12 -12 6 0 12 6 12 12 0 6 -6 12 -12 12 -6 0
-12 -6 -12 -12z"/>
<path d="M995 3040 c3 -5 8 -10 11 -10 2 0 4 5 4 10 0 6 -5 10 -11 10 -5 0 -7
-4 -4 -10z"/>
<path d="M8615 1781 c-3 -5 -2 -12 3 -15 5 -3 9 1 9 9 0 17 -3 19 -12 6z"/>
<path d="M8788 1672 c9 -10 19 -17 21 -16 6 5 -20 34 -30 34 -5 0 -1 -8 9 -18z"/>
<path d="M3633 9365 c0 -8 4 -12 9 -9 5 3 6 10 3 15 -9 13 -12 11 -12 -6z"/>
<path d="M3067 8359 c7 -7 15 -10 18 -7 3 3 -2 9 -12 12 -14 6 -15 5 -6 -5z"/>
<path d="M3153 7945 c0 -8 4 -12 9 -9 5 3 6 10 3 15 -9 13 -12 11 -12 -6z"/>
<path d="M3356 4267 c3 -10 9 -15 12 -12 3 3 0 11 -7 18 -10 9 -11 8 -5 -6z"/>
<path d="M3176 4068 c3 -5 10 -6 15 -3 13 9 11 12 -6 12 -8 0 -12 -4 -9 -9z"/>
<path d="M2070 3316 c0 -2 7 -7 16 -10 8 -3 12 -2 9 4 -6 10 -25 14 -25 6z"/>
<path d="M1670 3139 c0 -5 5 -7 10 -4 6 3 10 8 10 11 0 2 -4 4 -10 4 -5 0 -10
-5 -10 -11z"/>
<path d="M8265 8480 c3 -5 8 -10 11 -10 2 0 4 5 4 10 0 6 -5 10 -11 10 -5 0
-7 -4 -4 -10z"/>
<path d="M8340 8280 c0 -5 5 -10 11 -10 5 0 7 5 4 10 -3 6 -8 10 -11 10 -2 0
-4 -4 -4 -10z"/>
<path d="M8388 7523 c7 -3 16 -2 19 1 4 3 -2 6 -13 5 -11 0 -14 -3 -6 -6z"/>
<path d="M8336 7233 c-6 -14 -5 -15 5 -6 7 7 10 15 7 18 -3 3 -9 -2 -12 -12z"/>
<path d="M7875 6410 c-10 -11 -15 -20 -12 -20 4 0 16 9 27 20 11 11 16 20 12
20 -5 0 -17 -9 -27 -20z"/>
<path d="M7505 5190 c-3 -5 -2 -10 4 -10 6 0 8 -8 5 -17 -5 -14 -4 -15 4 -4 6
8 8 20 5 28 -6 16 -10 16 -18 3z"/>
<path d="M7469 5143 c-12 -16 -12 -17 2 -6 9 7 20 9 24 5 5 -4 5 -1 1 6 -9 16
-11 15 -27 -5z"/>
<path d="M7382 5025 c-8 -18 -8 -26 0 -31 6 -4 8 -3 4 4 -3 6 1 17 9 26 8 8
11 17 7 20 -5 3 -14 -6 -20 -19z"/>
<path d="M7035 4160 c-3 -5 -1 -10 4 -10 6 0 11 5 11 10 0 6 -2 10 -4 10 -3 0
-8 -4 -11 -10z"/>
<path d="M6750 3680 c-9 -6 -10 -10 -3 -10 6 0 15 5 18 10 8 12 4 12 -15 0z"/>
<path d="M6656 3582 c-3 -5 1 -9 9 -9 8 0 12 4 9 9 -3 4 -7 8 -9 8 -2 0 -6 -4
-9 -8z"/>
<path d="M6423 3325 c0 -8 4 -12 9 -9 5 3 6 10 3 15 -9 13 -12 11 -12 -6z"/>
<path d="M6370 3241 c0 -6 4 -13 10 -16 6 -3 7 1 4 9 -7 18 -14 21 -14 7z"/>
<path d="M6386 3148 c3 -5 10 -6 15 -3 13 9 11 12 -6 12 -8 0 -12 -4 -9 -9z"/>
<path d="M6395 3121 c-6 -11 13 -26 22 -17 4 3 1 6 -6 6 -7 0 -9 5 -6 10 3 6
4 10 1 10 -3 0 -7 -4 -11 -9z"/>
<path d="M6610 2805 c0 -2 6 -8 13 -14 10 -8 14 -7 14 2 0 8 -6 14 -14 14 -7
0 -13 -1 -13 -2z"/>
<path d="M7290 2470 c-6 -11 -8 -20 -6 -20 3 0 10 9 16 20 6 11 8 20 6 20 -3
0 -10 -9 -16 -20z"/>
<path d="M7430 2432 c0 -15 28 -23 36 -9 4 7 4 9 -1 5 -4 -4 -14 -3 -22 3 -8
7 -13 8 -13 1z"/>
<path d="M7541 2374 c0 -11 3 -14 6 -6 3 7 2 16 -1 19 -3 4 -6 -2 -5 -13z"/>
<path d="M7595 2340 c3 -5 8 -10 11 -10 2 0 4 5 4 10 0 6 -5 10 -11 10 -5 0
-7 -4 -4 -10z"/>
<path d="M8117 2079 c7 -7 15 -10 18 -7 3 3 -2 9 -12 12 -14 6 -15 5 -6 -5z"/>
</g>
</svg>
